<?xml version="1.0" encoding="UTF-8"?>
<svg width="495px" height="437px" viewBox="0 0 495 437" version="1.1" xmlns="http://www.w3.org/2000/svg" xmlns:xlink="http://www.w3.org/1999/xlink">
    <!-- Generator: Sketch 58 (84663) - https://sketch.com -->
    <title>01-02</title>
    <desc>Created with Sketch.</desc>
    <g id="current-version" stroke="none" stroke-width="1" fill="none" fill-rule="evenodd">
        <g id="Website-version-with-email" transform="translate(-342.000000, -1173.000000)" fill="#4E63CB" fill-rule="nonzero">
            <g id="Group-6" transform="translate(342.000000, 1174.000000)">
                <path d="M124.92558,420.2852 C99.554134,413.097152 75.0624588,401.632849 58.3468195,382.1365 C22.4748874,340.302344 2.36787486,280.702034 0.196828336,221.298657 C-1.97421819,161.89528 13.7481318,101.746372 50.6843024,59.068218 C99.8663106,2.25310105 174.320435,-8.39533756 246.390666,5.4602926 C318.475087,19.3018561 389.679737,57.8444213 434.477082,101.647906 C457.067318,123.732514 477.25947,152.794171 487.632248,184.261222 C498.033405,215.812672 498.657758,250.121181 481.445474,281.982097 C462.800016,316.48754 434.803449,345.141264 403.940533,368.28087 C383.280116,383.782296 362.378472,388.142951 342.668775,392.264474 L342.526877,392.292607 C322.675281,396.442263 304.001443,400.366852 285.157327,414.011483 C280.091552,417.682873 274.344664,420.566532 269.207939,423.140726 C268.966712,423.253259 268.739675,423.365792 268.498447,423.492391 C262.964407,426.263517 258.239188,428.697044 254.478879,431.63697 C250.888848,434.450296 245.681174,435.364627 241.310701,435.744426 C236.557103,436.152358 231.122391,436.025758 225.872148,435.688159 C218.436668,435.209894 210.618063,434.239296 205.140782,433.564098 C202.983926,433.282766 201.181815,433.071766 199.918919,432.9311 C177.428012,430.638239 150.353785,427.501381 124.92558,420.2852 Z M125.265744,412.440203 C150.04639,419.474754 176.698641,422.596426 199.694732,424.941277 C201.392236,425.113904 203.539505,425.38723 205.976945,425.689327 C211.475695,426.36545 218.526862,427.257356 225.723115,427.717695 C230.830134,428.034177 235.632472,428.120491 239.535278,427.789622 C241.479427,427.616995 243.060862,427.358055 244.250565,427.041572 C244.830908,426.883331 245.266165,426.725089 245.585354,426.581233 C245.73044,426.509305 245.846508,426.451763 245.919051,426.408606 C245.93356,426.394221 245.962577,426.394221 245.977086,426.379835 C245.977086,426.36545 245.991594,426.36545 246.006103,426.36545 C246.020611,426.351064 246.020611,426.336678 246.03512,426.336678 L246.03512,426.336678 C251.084104,422.380643 257.119671,419.330899 262.574895,416.612023 L262.923101,416.42501 C268.479885,413.648593 273.499852,411.131115 277.79439,408.023829 C299.36864,392.386698 320.870348,387.88401 340.877672,383.71219 L341.458015,383.58272 C361.755511,379.353358 380.486081,375.325394 399.086074,361.371377 C429.597607,338.498297 456.757658,310.53272 474.675748,277.33079 C490.214432,248.574006 489.92426,217.299745 480.116464,187.535969 C470.265141,157.685881 450.925211,129.677147 429.002755,108.242626 C385.056282,65.2584979 314.602644,27.0503845 243.380051,13.3553077 C172.157458,-0.325383528 101.718327,10.7083601 55.6681114,63.906253 C20.6008864,104.430446 5.04769439,162.447509 7.19496344,220.910526 C9.32772392,279.373543 29.1319284,337.333065 63.5462675,377.483232 C78.2434536,394.616464 100.427064,405.391267 125.265744,412.440203 Z" id="Shape" transform="translate(247.500000, 218.000000) scale(-1, 1) rotate(-180.000000) translate(-247.500000, -218.000000) "></path>
            </g>
        </g>
    </g>
</svg>