<?xml version="1.0" encoding="UTF-8"?>
<svg width="401px" height="792px" viewBox="0 0 401 792" version="1.1" xmlns="http://www.w3.org/2000/svg" xmlns:xlink="http://www.w3.org/1999/xlink">
    <!-- Generator: Sketch 58 (84663) - https://sketch.com -->
    <title>Group 12</title>
    <desc>Created with Sketch.</desc>
    <g id="current-version" stroke="none" stroke-width="1" fill="none" fill-rule="evenodd">
        <g id="Website-version-with-email" transform="translate(-1199.000000, -2773.000000)" stroke="#F8C5B0" stroke-width="2">
            <g id="Group-12" transform="translate(1800.315351, 3368.015749) rotate(4.000000) translate(-1800.315351, -3368.015749) translate(1175.315351, 2705.515749)">
                <path d="M1016.30947,707.696949 C1023.45646,717.083822 1045.8608,746.54314 1065.78752,764.555416 C1094.46327,790.485959 1125.26871,820.576543 1143.29085,839.061915 C1161.313,857.547288 1188.09055,886.756252 1212.69293,919.033154 C1226.52295,937.177352 1240.34717,957.117744 1247.71508,981.521702 C1263.69742,1034.41716 1177.71699,1026.39189 1156.49108,1027.7758 C1103.72185,1031.19991 1043.89487,1031.98461 995.075874,1059.83408 C964.591797,1077.22574 952.068103,1106.06678 958.56989,1146.10753 C960.817132,1159.96093 964.86685,1171.7884 959.740328,1185.57047 C953.812056,1201.52114 940.176445,1211.46534 927.676159,1218.48478 C888.519131,1240.47759 842.234131,1245.15008 799.78817,1249.03788 C755.937682,1253.05408 710.249606,1255.88611 667.809497,1252.94708 C650.838135,1251.77717 631.303512,1258.41853 614.507716,1263.5119 C588.664429,1271.35883 563.08449,1280.41134 537.369951,1288.82896 C485.109861,1305.94954 431.492062,1322.44236 377.125182,1324.31849 C337.874519,1325.67387 296.950128,1318.32629 264.294887,1289.92753 C231.200732,1261.12929 216.517578,1216.48738 198.165098,1174.04974 C166.469617,1100.68093 123.66082,1011.47558 50.3328327,995.974324 C39.2136647,993.620244 28.5275589,994.897154 17.4200952,994.319335 C11.7083542,994.026858 5.20656695,993.099493 2.30973105,986.229861 C-5.21033788,968.395925 15.3952362,935.788356 22.3300858,922.127561 C41.490168,884.376685 63.0320931,848.473404 83.1109698,811.450153 C99.0581977,782.052692 119.271675,749.388055 125.439887,714.540543 C132.924843,672.252714 84.0180598,642.163296 66.8184625,612.387757 C37.0015354,560.754944 93.4927614,531.336083 121.343351,506.718118 C153.32559,478.454896 179.724836,426.893419 151.054939,383.164608 C140.087928,366.443509 126.592769,356.477905 121.694483,334.656301 C114.033961,300.529281 119.827633,261.530029 126.042663,227.795355 C135.406173,177.082774 150.223927,126.919478 170.367178,81.0862622 C184.798688,48.2718196 208.740012,-3.18265324 243.800505,0.676610561 C267.402402,3.25183095 291.396397,12.6610157 314.377961,20.9787636 C348.78886,33.426851 382.766697,47.6155307 416.563116,62.3534956 C494.57871,96.2807759 571.734032,133.68924 647.373636,174.835698 C698.984133,202.920581 690.922387,418.499803 701.754797,422.594475 C734.053054,434.792887 742.261428,501.225559 769.690669,478.810582 C797.119909,456.395606 855.006807,443.57971 897.910257,453.160845 C929.479575,460.210858 964.452557,476.364587 998.826524,534.775492 C1016.72157,565.184143 1008.79297,622.074555 1000.47783,656.274754 C995.822861,675.420624 1009.16248,698.310076 1016.30947,707.696949 Z" id="Shape" transform="translate(625.183100, 662.471409) rotate(-180.000000) translate(-625.183100, -662.471409) "></path>
                <path d="M1010.69482,662.013608 C1031.21636,695.052927 1080.03742,752.431723 1126.41094,804.391918 C1147.24755,827.738752 1170.46567,856.41237 1189.73994,882.282626 C1199.7663,895.734874 1206.21577,916.890135 1208.14729,935.64197 C1213.30973,985.806159 1135.79123,979.022973 1112.58953,980.927401 C1067.73135,984.622133 1017.05519,987.425279 976.358562,1013.02449 C951.49458,1028.67361 939.249889,1054.35841 943.897253,1088.11742 C945.957545,1103.09607 949.165045,1115.82078 943.897253,1130.52838 C938.559223,1145.42856 927.438327,1155.94215 916.176957,1163.82376 C883.815151,1186.49144 843.59848,1193.73825 807.162915,1199.1377 C764.42027,1205.42668 721.356348,1207.88217 678.318559,1206.48437 C640.624576,1205.27894 603.112039,1218.83818 566.307728,1227.77544 C517.55138,1239.60857 467.911214,1249.94383 418.019364,1248.38177 C378.616275,1247.14068 338.902972,1237.3903 305.218364,1211.47725 C270.989418,1185.08631 250.409908,1145.58548 231.855572,1102.96055 C203.807502,1038.52385 168.852771,952.175539 107.3191,927.703289 C98.3697055,924.136946 90.0290337,923.744648 80.7986904,923.124104 C76.3152135,922.824531 70.5264947,922.731806 68.3023156,917.032789 C62.9525795,903.309499 82.7302144,876.704576 88.2496904,867.432083 C105.86753,837.831431 124.966205,809.564592 143.023028,780.356238 C159.879964,753.087975 178.241148,724.671349 188.71235,692.716911 C205.376134,641.825188 152.101191,612.067617 153.593732,563.572477 C154.524375,533.465405 178.176764,511.874761 196.906694,496.938914 C219.967919,478.572245 253.172573,466.496605 264.714892,432.980108 C273.3131,408.015703 259.821697,393.48642 249.43244,374.542003 C231.826306,342.44491 230.62642,298.935519 232.458441,261.781351 C234.928451,211.574367 244.580217,160.625582 261.009877,114.477096 C268.455024,93.556925 277.574159,71.7950965 291.001177,55.5468352 C303.579495,40.3185481 315.484707,36.4169682 332.294818,39.5339525 C383.7553,49.0917533 435.713295,75.7323398 485.060806,99.5269841 C547.062725,129.427209 608.210092,162.437285 667.53129,199.577187 C707.982085,224.905359 657.795827,532.730818 693.30075,567.723781 C702.554505,576.846488 794.707558,433.589492 848.601339,429.824694 C902.495119,426.059897 949.137572,447.7341 964.039724,463.415567 C1003.73792,505.189799 1016.42375,555.835686 1009.17711,586.972111 C1001.93046,618.108536 1004.2809,651.687304 1010.69482,662.013608 Z" id="Shape" transform="translate(637.893381, 643.538665) rotate(-180.000000) translate(-637.893381, -643.538665) "></path>
                <path d="M1014.0681,701.065641 C1048.60586,746.880752 1055.62551,750.294271 1092.70384,793.167389 C1109.32879,812.390313 1126.11766,832.555817 1138.7854,856.00607 C1145.59929,868.616651 1152.83466,884.490559 1150.95557,900.164525 C1145.56417,945.151308 1081.80981,941.088216 1056.05284,943.723156 C1017.78032,947.593448 973.811995,951.492302 939.970845,975.749461 C917.802287,991.637651 909.489809,1015.10219 913.628486,1045.36472 C918.071564,1077.82661 908.137568,1101.39112 885.529971,1119.50009 C857.185593,1142.18628 821.406816,1151.43356 788.49643,1158.00306 C748.845899,1165.88022 708.693076,1169.37196 668.527476,1168.43571 C629.464685,1167.52169 591.619497,1175.50506 552.814276,1180.69639 C501.364723,1187.57294 448.264382,1190.9648 397.394361,1176.86894 C353.104076,1164.59398 313.098814,1137.54478 283.109503,1095.71422 C251.785512,1052.05561 236.278643,997.050346 210.843633,948.750251 C194.979679,918.623388 172.857952,878.770811 143.214018,867.059965 C133.326853,863.15397 115.30868,868.42385 123.205533,849.208067 C127.718857,838.218439 136.165974,828.578414 142.839371,819.595339 C153.622176,805.078175 164.762067,790.960894 175.726342,776.643672 C199.094941,746.124067 224.120181,714.954653 241.634923,678.815271 C263.703965,633.314353 230.898948,598.29607 234.897133,552.159625 C237.045499,527.331205 251.200126,507.515598 266.174293,491.948743 C275.862427,481.865991 286.463763,473.132843 297.287545,464.985236 C308.591344,456.473452 321.967408,449.989642 331.825304,438.985732 C345.874562,423.326047 339.774843,404.788636 337.140607,384.544584 C332.504169,348.967771 331.485702,312.828846 334.108309,276.947624 C337.316223,232.967688 344.838429,187.730979 360.684821,147.764149 C366.848933,132.204435 374.657979,115.709281 386.254471,105.276632 C397.850962,94.8439828 409.845516,95.5580587 423.133772,98.6999927 C462.547795,107.98298 501.879863,129.583776 539.26845,150.056333 C586.064186,175.684518 631.940867,204.326103 675.751136,236.909387 C705.992163,259.402779 648.583156,445.49845 673.883528,475.996632 C681.241827,484.872596 729.546792,492.327555 735.95856,487.923676 C757.779768,472.93593 806.738131,444.682306 852.383912,441.492462 C893.576954,438.613787 969.409612,466.819617 981.306508,541.219363 C984.231321,559.510292 977.856495,587.539223 980.206977,621.131419 C982.55746,654.723614 1005.21706,689.319092 1014.0681,701.065641 Z" id="Shape" transform="translate(636.257522, 641.648172) rotate(-180.000000) translate(-636.257522, -641.648172) "></path>
                <path d="M972.372974,612.693428 C992.92983,657.323139 1038.53385,703.794354 1066.20893,744.74822 C1082.40826,768.731818 1110.30549,809.051347 1097.77746,842.863588 C1084.03346,880.018566 1036.12529,881.030652 1008.43267,884.024147 C975.472788,887.587832 936.766261,892.455826 908.559194,915.655413 C899.638161,922.989477 892.038329,932.696954 888.81717,945.483455 C885.368016,959.168004 889.138701,971.141985 889.629767,984.840789 C890.658668,1013.57834 876.593133,1036.64964 857.979392,1052.49378 C831.672283,1074.8951 798.776704,1085.48637 767.705085,1092.87033 C732.502711,1101.19863 696.716048,1105.30458 660.8573,1105.1294 C626.587905,1104.98686 592.680964,1105.91342 558.376494,1106.98252 C513.514104,1108.40799 468.020343,1106.10585 424.502538,1091.57315 C381.633642,1077.24714 342.658198,1050.39833 312.042569,1010.90558 C282.175231,972.367893 262.023986,925.263108 244.374838,877.281656 C234.360599,850.047977 217.442204,809.350697 193.555349,795.594874 C182.933123,789.472463 172.509662,789.892978 183.804181,773.970435 C198.027558,753.921144 217.196671,737.834671 233.670768,720.68622 C257.434856,695.939993 281.79524,670.709105 301.741874,641.287324 C314.480361,622.499578 320.156851,604.267766 319.279947,579.942054 C318.601808,561.410893 315.5268,543.072172 317.081842,524.469737 C320.723915,480.807471 348.91929,450.865392 373.846738,422.983122 C389.882382,405.050661 404.526673,391.373239 412.781259,365.864383 C422.54412,335.71561 426.642183,302.915455 433.166346,271.612049 C440.333572,237.236745 448.611542,201.478732 464.255503,171.201667 C478.180733,144.245955 495.116665,132.157936 520.465027,139.420726 C560.001689,150.738989 598.971287,178.621258 634.070816,204.415209 C669.795871,230.658183 704.907092,260.165493 734.511359,296.23711 C750.49439,315.716211 692.352674,411.845137 706.546821,432.771094 C724.400579,459.042578 800.923517,400.101147 873.955722,421.071072 C928.288673,436.671831 958.626476,489.688097 961.11706,525.285789 C963.607644,560.883481 966.311853,599.534506 972.372974,612.693428 Z" id="Shape" transform="translate(639.919969, 622.345672) rotate(-180.000000) translate(-639.919969, -622.345672) "></path>
                <path d="M980.192306,586.130849 C1001.18367,622.649135 1026.30553,657.149325 1044.31732,696.591357 C1056.0019,722.134904 1067.47617,756.264278 1052.40305,783.29109 C1035.39029,813.790741 997.876928,820.900433 970.312989,824.786874 C941.913601,828.787413 908.010774,832.153285 884.799343,855.279394 C877.414684,862.645805 871.327014,872.579407 870.19361,884.474057 C869.101101,895.883793 872.185832,907.293529 871.16343,918.910067 C868.873251,944.995576 855.909203,966.488667 839.194402,982.077219 C789.751074,1028.19395 716.161549,1038.44845 656.505893,1039.6536 C626.645932,1040.25261 595.91547,1037.1078 565.862713,1034.85438 C526.865406,1031.93064 487.809676,1025.65528 450.617637,1010.53025 C371.542199,978.383317 318.540914,907.086728 281.524145,818.368898 C269.874612,790.443569 260.959272,760.229161 242.702106,737.787636 C233.290172,726.199623 235.346659,717.877646 244.968916,707.309378 C260.012821,690.793785 278.363464,678.171764 295.060738,664.387377 C318.80966,644.784024 343.066861,624.888296 364.069906,601.405633 C378.547108,585.21807 388.823702,569.622386 391.943486,545.348173 C394.1694,528.041029 393.649436,510.405856 394.987321,492.991746 C397.534561,459.910642 406.257105,427.079126 421.698286,399.63871 C433.967102,377.888901 448.572835,358.121533 463.66932,339.274075 C483.293583,314.736011 499.891538,289.805737 514.795228,260.682386 C534.553864,222.131739 562.316441,151.020559 608.856149,169.839492 C660.186537,190.605212 708.297822,243.368111 741.230829,294.49086 C752.29029,311.655382 761.369214,332.706345 776.284588,345.364021 C798.613833,364.28279 722.904479,412.269409 749.463544,412.190967 C789.226192,412.084001 857.185911,390.38137 910.383423,419.265486 C963.580935,448.149602 965.855319,561.243361 980.192306,586.130849 Z" id="Shape" transform="translate(648.106332, 603.228051) rotate(-180.000000) translate(-648.106332, -603.228051) "></path>
                <path d="M982.003266,559.524912 C1002.77123,607.152831 1049.34128,685.415507 1013.92115,738.377411 C995.211269,766.366568 962.118175,776.884787 934.357396,783.152932 C912.016635,788.223069 885.074413,790.127045 868.194596,811.619866 C855.78761,827.422152 861.295329,850.419613 856.541851,870.200994 C850.642394,894.724488 837.101121,914.791109 820.461024,929.873165 C773.961135,972.024479 709.306818,984.960105 653.370135,987.71267 C595.275969,990.565068 531.264805,977.222975 476.596885,951.558522 C408.434467,919.547483 357.368198,858.934021 321.655722,782.175985 C315.066337,768.006697 309.079177,753.466597 302.7529,739.126165 C298.50225,729.506452 292.19936,720.200503 288.849123,710.08162 C283.271241,693.209685 289.843085,679.41834 300.379084,668.422344 C315.534084,652.591534 334.150411,641.324561 351.427812,629.444323 C375.054878,613.185653 399.208159,597.219354 421.186417,578.143941 C435.955525,565.308149 451.414561,551.481149 456.700101,529.21105 C460.307599,514.022029 461.055994,497.934503 460.927364,482.203527 C460.646715,448.473918 462.096731,421.19786 474.994852,390.306388 C496.218868,339.590747 528.855908,293.988031 563.334702,256.044004 C590.393861,226.264966 633.210243,180.006198 672.635461,199.915938 C708.008821,217.743427 728.700775,260.415304 752.006264,294.91506 C763.337433,311.687162 712.37573,451.641192 727.331937,463.571348 C746.187984,478.610618 747.150774,408.438852 783.826021,405.873806 C821.545021,403.235762 871.81954,385.558153 914.290884,417.308571 C956.762229,449.058989 971.525735,535.500588 982.003266,559.524912 Z" id="Shape" transform="translate(656.815870, 591.592160) rotate(-180.000000) translate(-656.815870, -591.592160) "></path>
                <path d="M976.229279,711.98744 C958.928443,734.425083 934.592751,746.968175 911.040007,756.341584 C894.171546,763.059313 867.387677,765.036796 857.045738,785.689707 C849.449964,800.88848 848.398242,821.855504 841.526987,838.139394 C832.084856,860.527064 817.781429,878.966909 801.00061,893.401817 C757.284008,931.016815 700.344916,945.551668 648.419035,949.713662 C535.592573,958.744402 420.791209,886.819727 360.41649,768.484897 C342.414505,733.211465 319.177279,695.667856 348.269094,659.630559 C380.031116,620.316496 427.878651,601.898068 465.787407,573.963452 C480.271965,563.297898 498.729696,550.476387 506.810431,531.165594 C511.671727,519.557701 512.004772,504.994292 512.226803,492.215616 C512.811093,459.669254 515.025553,430.399659 525.747281,400.03067 C542.306069,353.099373 568.710148,309.801789 598.631656,274.335607 C624.726062,243.409781 661.939513,207.065511 699.836583,229.360376 C728.893341,246.493797 747.321858,282.859484 769.898836,309.66615 C795.02332,339.521136 743.699432,413.165011 777.821988,422.995312 C811.015521,432.532916 872.558914,402.87424 920.210775,427.854784 C941.288344,438.904281 970.780948,523.567577 977.730905,547.877818 C992.519293,599.991975 1011.94695,665.670091 976.229279,711.98744 Z" id="Shape" transform="translate(665.480042, 586.475314) rotate(-180.000000) translate(-665.480042, -586.475314) "></path>
                <path d="M964.723794,520.628438 C971.562098,573.279807 972.321909,628.180624 940.550099,669.677587 C925.722085,689.037123 906.97812,702.790892 888.023745,715.252121 C874.078282,724.4213 859.676931,732.155117 849.261669,747.187143 C839.612063,761.105157 832.27696,777.265479 822.960502,791.547689 C810.671131,810.474702 795.966454,826.859207 779.411613,840.071499 C737.914216,873.127675 687.433508,888.588168 639.13872,893.951138 C615.759905,896.557642 590.399735,897.914452 567.178726,890.809052 C544.752598,883.953591 522.577791,873.113393 501.957676,860.473637 C458.122397,833.630222 420.131822,794.318438 392.591577,744.616345 C373.707339,710.524709 363.496641,677.375698 387.950882,642.791326 C415.52035,603.808032 458.74778,582.299023 494.377095,556.998087 C518.813802,539.645202 546.202084,522.635089 550.766798,485.758421 C554.402204,456.41562 557.353779,428.565309 566.757908,400.829257 C580.754027,359.918078 601.333026,322.85837 627.273971,291.84885 C650.997624,263.598637 681.010179,239.625947 714.944529,254.715102 C741.830167,266.690736 762.689915,293.519868 786.17978,312.700877 C812.358209,334.124193 780.853262,404.78133 811.140518,414.279 C838.359304,422.848326 888.262722,408.879678 924.129313,434.570234 C946.657353,450.706639 961.631946,496.79857 964.723794,520.628438 Z" id="Shape" transform="translate(671.057374, 573.053564) rotate(-180.000000) translate(-671.057374, -573.053564) "></path>
                <path d="M941.591567,483.889658 C945.08021,533.779093 931.150248,581.17325 904.154904,620.151066 C892.613883,636.825187 878.832512,650.559342 866.133294,665.838588 C855.908405,678.156408 846.245067,689.601536 834.487615,699.751934 C806.597301,723.786704 783.930572,754.888841 754.291264,776.291231 C714.725391,804.904053 669.403631,820.71979 624.43284,827.043223 C602.473898,830.133408 579.78962,831.213542 557.5733,827.722778 C538.492301,824.725585 520.21853,814.20322 503.266742,803.437646 C470.041703,782.349996 437.781829,752.378066 416.208952,714.458925 C368.646842,630.859414 462.419833,570.078629 510.549342,534.484279 C532.683769,518.110592 566.505454,499.147445 575.572146,466.714812 C582.053368,443.54558 586.001766,419.982921 594.348972,397.52901 C616.770023,337.227489 662.284816,266.303458 722.938059,275.745689 C748.892195,279.780097 772.547487,296.168091 796.776027,307.16972 C821.724053,318.500398 744.377181,376.552608 770.307919,383.484064 C794.542309,389.957715 888.652225,398.454538 904.711083,411.873979 C922.645288,426.860536 939.072789,447.869797 941.591567,483.889658 Z" id="Shape" transform="translate(672.620059, 552.394231) rotate(-180.000000) translate(-672.620059, -552.394231) "></path>
            </g>
        </g>
    </g>
</svg>