<?xml version="1.0" encoding="UTF-8"?>
<svg width="754px" height="658px" viewBox="0 0 754 658" version="1.1" xmlns="http://www.w3.org/2000/svg" xmlns:xlink="http://www.w3.org/1999/xlink">
    <!-- Generator: Sketch 58 (84663) - https://sketch.com -->
    <title>02-01-shape</title>
    <desc>Created with Sketch.</desc>
    <g id="current-version" stroke="none" stroke-width="1" fill="none" fill-rule="evenodd">
        <g id="Website-version-with-email" transform="translate(-91.000000, -1905.000000)" fill="#F0D27D" fill-rule="nonzero">
            <g id="Group-8" transform="translate(16.000000, 1833.000000)">
                <path d="M262.533556,724.139455 C224.040716,713.225492 186.88264,695.818683 161.522144,666.216429 C107.098264,602.697595 76.5924728,512.203547 73.2986224,422.008512 C70.004772,331.813476 93.8582767,240.486464 149.89679,175.686148 C224.514342,89.4209929 337.474034,73.2529508 446.81695,94.2906278 C556.181394,115.306947 664.211075,173.827997 732.176341,240.336958 C766.449608,273.869093 797.084569,317.994819 812.821854,365.772772 C828.602196,413.678873 829.549447,465.771152 803.435457,514.14713 C775.147095,566.538421 732.671495,610.044764 685.847151,645.178752 C654.501752,668.715321 622.790369,675.336316 592.887374,681.594224 L592.67209,681.63694 C562.553811,687.937564 534.222392,693.896459 505.632631,714.613765 C497.946981,720.188216 489.227965,724.566616 481.434672,728.475138 C481.068688,728.646003 480.724233,728.816867 480.35825,729.00909 C471.962161,733.216625 464.793192,736.911567 459.088157,741.375399 C453.641464,745.647009 445.740528,747.035282 439.109771,747.611949 C431.897745,748.231333 423.652355,748.03911 415.686835,747.526517 C404.405935,746.800343 392.543768,745.326638 384.233793,744.301452 C380.961471,743.874291 378.22736,743.55392 376.311329,743.34034 C342.188761,739.858978 301.11251,735.096133 262.533556,724.139455 Z M262.601647,715.141645 C300.443758,725.927957 341.143967,730.71452 376.260914,734.309958 C378.853143,734.574652 382.132202,734.993752 385.854377,735.456968 C394.251426,736.493689 405.019146,737.861279 416.008424,738.567132 C423.807266,739.052405 431.140837,739.184753 437.100748,738.677421 C440.069626,738.412726 442.484608,738.015684 444.301384,737.53041 C445.187616,737.287774 445.85229,737.045137 446.339718,736.824558 C446.561276,736.714268 446.738522,736.626037 446.849301,736.559863 C446.871457,736.537805 446.915769,736.537805 446.937924,736.515747 C446.937924,736.493689 446.96008,736.493689 446.982236,736.493689 C447.004392,736.471631 447.004392,736.449573 447.026548,736.449573 C454.736767,730.383652 463.953581,725.707378 472.284162,721.538435 L472.815902,721.251683 C481.301574,716.994509 488.967482,713.134377 495.525599,708.369871 C528.471278,684.392937 561.306177,677.488815 591.859029,671.092025 L592.745261,670.893504 C623.741229,664.408483 652.34437,658.232271 680.748109,636.836111 C727.341762,601.764056 768.817424,558.883504 796.17984,507.973878 C819.908705,463.880143 819.465589,415.926275 804.488266,370.288486 C789.444476,324.518351 759.910792,281.571625 726.433374,248.705359 C659.323448,182.796363 551.734871,124.21059 442.972036,103.211472 C334.209201,82.2344119 226.642779,99.1528188 156.320262,180.722921 C102.769687,242.860017 79.0186666,331.819514 82.2977254,421.462807 C85.5546284,511.1061 115.797299,599.977366 168.350863,661.540956 C190.794691,687.811911 224.670913,704.333276 262.601647,715.141645 Z" id="02-01-shape" transform="translate(448.500000, 417.000000) rotate(-195.000000) translate(-448.500000, -417.000000) "></path>
            </g>
        </g>
    </g>
</svg>