<?xml version="1.0" encoding="UTF-8"?>
<svg width="773px" height="717px" viewBox="0 0 773 717" version="1.1" xmlns="http://www.w3.org/2000/svg" xmlns:xlink="http://www.w3.org/1999/xlink">
    <!-- Generator: Sketch 58 (84663) - https://sketch.com -->
    <title>02-02-shape</title>
    <desc>Created with Sketch.</desc>
    <g id="current-version" stroke="none" stroke-width="1" fill="none" fill-rule="evenodd">
        <g id="Website-version-with-email" transform="translate(-728.000000, -1891.000000)" fill="#6BA7AF" fill-rule="nonzero">
            <path d="M1424.3683,2513.7134 C1438.94041,2450.90527 1482.41564,2431.86522 1481.31738,2372.40401 C1481.10308,2360.81442 1473.66523,2327.21171 1474.62956,2317.87417 C1476.52251,2299.63524 1482.86209,2282.40217 1486.83549,2265.28482 C1495.18409,2229.29655 1492.31464,2205.95339 1494.85001,2178.09977 C1497.38538,2150.24615 1484.48702,2127.61484 1469.54883,2103.77695 C1459.04834,2087.01566 1394.74482,2045.35474 1379.66837,2032.11912 C1335.78372,1993.59279 1308.09937,1964.51453 1228.93498,1946.2578 C1163.84267,1931.25898 1106.90712,1927.94928 1040.09151,1923.81014 C1004.0452,1921.57589 929.541733,1924.75368 905.237032,1955.35662 C884.780724,1981.12611 858.973174,1998.32972 839.963362,2024.55318 C831.382606,2036.39202 833.739859,2056.63375 827.319918,2069.81669 C819.596344,2085.67005 780.75448,2070.26402 776.754294,2087.51489 C750.833447,2199.2717 676.075345,2151.7133 701.290802,2270.01262 C706.541046,2294.64273 787.223515,2441.55312 807.644107,2452.57303 C849.735349,2475.30715 877.924663,2531.89932 939.506481,2569.2224 C1005.62254,2609.29355 1026.88163,2633.75695 1169.99934,2642.69437 C1313.11704,2651.6318 1416.19828,2548.95396 1424.3683,2513.7134 Z" id="02-02-shape" transform="translate(1095.670234, 2283.243195) rotate(-45.000000) translate(-1095.670234, -2283.243195) "></path>
        </g>
    </g>
</svg>