<?xml version="1.0" encoding="UTF-8"?>
<svg width="673px" height="633px" viewBox="0 0 673 633" version="1.1" xmlns="http://www.w3.org/2000/svg" xmlns:xlink="http://www.w3.org/1999/xlink">
    <!-- Generator: Sketch 58 (84663) - https://sketch.com -->
    <title>03-01-shape</title>
    <desc>Created with Sketch.</desc>
    <g id="current-version" stroke="none" stroke-width="1" fill="none" fill-rule="evenodd">
        <g id="Website-version-with-email" transform="translate(-102.000000, -2834.000000)" fill="#EE797F" fill-rule="nonzero">
            <path d="M397.279687,2813.24457 C463.136956,2801.98125 522.105106,2820.76549 589.310778,2858.37866 C655.315144,2895.31912 681.633535,2936.34599 726.320864,2995.18508 C765.780063,3047.14045 757.769317,3116.65708 756.457688,3177.45122 C754.925411,3248.16758 694.026592,3315.62141 656.24064,3370.49652 C603.242241,3447.47469 551.451276,3506.92833 450.124859,3488.68152 C378.953654,3475.86406 254.109849,3440.01314 213.449344,3376.96645 C183.606716,3330.69141 146.507225,3269.53612 132.152853,3216.93192 C101.010855,3102.7868 163.815827,2987.41748 240.362259,2907.42286 C285.074104,2860.69976 331.777908,2824.44852 397.279687,2813.24457 Z" id="03-01-shape" transform="translate(441.000000, 3151.000000) rotate(-98.000000) translate(-441.000000, -3151.000000) "></path>
        </g>
    </g>
</svg>