<?xml version="1.0" encoding="utf-8"?>
<!-- Generator: Adobe Illustrator 23.1.0, SVG Export Plug-In . SVG Version: 6.00 Build 0)  -->
<svg version="1.1" id="Layer_1" xmlns="http://www.w3.org/2000/svg" xmlns:xlink="http://www.w3.org/1999/xlink" x="0px" y="0px"
	 viewBox="0 0 767 327" style="enable-background:new 0 0 767 327;" xml:space="preserve">
<style type="text/css">
	.st0{fill:#ED797F;}
	.st1{fill:#F8C6B1;}
	.st2{fill:#F9D8BD;}
</style>
<g id="Group" transform="translate(-289.000000, -286.990381)">
	<g id="Mask" transform="translate(486.870849, 434.323799) rotate(65.000000) translate(-486.870849, -434.323799) ">
		<path class="st0" d="M232.75,585.57c-5.8-28.85-0.33-212.22,1.29-241.28c0.41-7.35,1.14-13.11,3.8-19.53
			c2.68-6.48,12.9-13.46,16.92-19.3c27.75-40.35,100.92-30.76,146.44-30.32c56.27,0.53,112.39-4.32,168.93-1.62
			s114.56,12.74,227.85,14.19c57.44,0.73,117.51-16.21,169.64-16.81c76.83-0.9,136.41,14.35,144.81,16.02
			c12.35,2.45,22.09,6.21,27.83,15.53c5.25,8.53,8.87,17.78,12.06,26.9c3.54,10.08,1.6,21.27,5.27,30.94
			c5.66,14.92,2.54,185.96-3.96,200.4c-11.44,25.41-20.32,43.01-53.15,42.99c-19.82-0.02-90.83-4.28-178.99-2.18
			c-82.67,1.96-180.4,23.51-265.14,22.93c-96.63-0.67-176.37-13.26-197.56-13.82c-27.72-0.74-49.65-3.7-84.38-4.79
			c-30.28,1.18-60.37-3.11-90.46-5.13C262.02,599.18,236.94,606.42,232.75,585.57z"/>
	</g>
	<path id="Shape" class="st1" d="M290.48,361.33c14.57,2.35,27.41,1.09,33.12,19.19c3.52,11.17-5.7,17.92-6.38,28.38
		c-1.18,18.28,2.84,65.08-8.52,81.04c-5.43,7.62-12.07,23.21-18.3,23.21C290.39,499.87,290.39,385.49,290.48,361.33z"/>
	<path id="Path" class="st2" d="M1056.39,338.58c-9.94-5.67-17.47-12.17-26.64-23.01c-6.94-8.2-14.73-17.89-22.63-29.13
		c7.4,0,13.27,0,49.27,0C1056.39,312.44,1056.39,318.97,1056.39,338.58z"/>
</g>
</svg>
