<?xml version="1.0" encoding="UTF-8"?>
<svg width="63px" height="24px" viewBox="0 0 63 24" version="1.1" xmlns="http://www.w3.org/2000/svg" xmlns:xlink="http://www.w3.org/1999/xlink">
    <!-- Generator: Sketch 58 (84663) - https://sketch.com -->
    <title>logo-mobile@3x</title>
    <desc>Created with Sketch.</desc>
    <defs>
        <polygon id="path-1" points="0 0.0619738969 18.8183652 0.0619738969 18.8183652 17.1223444 0 17.1223444"></polygon>
        <polygon id="path-3" points="0.063498719 0.0297385143 8.76305125 0.0297385143 8.76305125 16.6401247 0.063498719 16.6401247"></polygon>
    </defs>
    <g id="current-version" stroke="none" stroke-width="1" fill="none" fill-rule="evenodd">
        <g id="Mobile-menu" transform="translate(-24.000000, -15.000000)">
            <g id="logo" transform="translate(24.000000, 15.000000)">
                <path d="M58.382116,0 C59.1416002,0.051808422 60.0995413,0.218575927 60.4089847,1.13802907 C60.7886193,2.27086265 60.623645,3.22726954 59.63258,3.98061375 C58.5727578,4.82747656 57.358644,5.24135853 56.0095969,5.26857991 C55.1609934,5.28562985 54.5008809,5.00097624 54.186347,4.15221086 C53.8824243,3.33176449 53.9549814,2.56305337 54.5375897,1.8638592 C55.5962648,0.593455229 56.494339,0.11415415 58.382116,0" id="Fill-1" fill="#FFFFFF"></path>
                <g id="Group-5" transform="translate(0.000000, 6.147513)">
                    <mask id="mask-2" fill="white">
                        <use xlink:href="#path-1"></use>
                    </mask>
                    <g id="Clip-4"></g>
                    <path d="M5.89295466,7.47849971 C5.3644138,5.89173556 5.41241675,4.07655653 6.82432819,3.29692847 C7.01532331,3.19145764 7.46492436,2.97960371 8.26260131,2.97960371 C9.61503557,3.06275936 10.4573023,3.82203709 11.0604256,4.72271451 C11.3626772,5.24859504 11.8581026,5.75777427 11.1501861,6.1401499 C10.131957,6.69002978 8.03333455,7.79259648 6.95301388,8.22254978 C6.23108138,8.58857498 6.03594682,7.90768109 5.89295466,7.47849971 M18.6290611,11.362886 C18.2891914,11.0441578 17.291369,11.1991009 16.8117026,11.5765644 C15.8965963,12.2967555 14.6239007,12.9914736 14.175389,13.1961698 C11.6768388,14.4862402 7.96652257,13.1405923 7.15649993,11.184575 C8.65664676,10.3852282 10.6250584,9.59654775 12.087442,8.87102349 C13.4896221,8.17539316 15.6936912,7.06615997 17.1173674,6.41066891 C17.8700915,6.05987137 17.4034969,5.00937343 17.1225961,4.58096395 C16.3110484,3.34310266 15.4190359,2.43498685 14.2751712,1.55437906 C12.4843923,0.175679464 10.6319575,-0.00389463162 8.43769228,0.0789101488 C7.01408874,0.0619738969 4.1666638,1.14161828 2.90900089,2.23078184 C2.32526752,2.67855921 1.84589156,3.23356176 1.46099646,3.86301844 L1.45794635,3.84982581 C0.467386114,5.31189158 -0.0788018261,7.11247451 0.009215696,9.03768565 C0.122287711,11.5087066 1.25801876,13.6864723 2.97414257,15.1554151 C3.31524678,15.4899324 3.73057039,15.7779948 4.19919833,16.0230408 C4.22468856,16.0378474 4.24908945,16.0545487 4.27472492,16.0690746 L4.27276413,16.0607942 C5.78874249,16.8300365 7.83413318,17.1585189 9.72360503,17.1192217 C13.1642042,17.0476447 15.8598497,16.210755 18.1192566,13.5233188 C18.6740865,12.8632665 19.070238,11.776559 18.6290611,11.362886" id="Fill-3" fill="#FFFFFF" mask="url(#mask-2)"></path>
                </g>
                <path d="M27.6156644,7.89177245 C30.716004,5.33409192 33.8352804,4.69551544 36.9883419,7.76431025 C37.7280995,7.36603482 38.4919585,6.97296192 39.2380284,6.54972837 C42.0294243,4.96611776 44.3890738,5.86721153 45.7296467,8.60803548 C46.8164369,10.8299414 47.5088523,13.2381544 48.3573534,15.5703681 C48.7586861,16.673236 49.0215787,17.835441 49.5297182,18.8858617 C49.8216617,19.4894265 50.5224695,19.890725 50.9548615,20.4461312 C51.1993194,20.7601817 51.4046841,20.9573861 51.3722618,21.5552562 C51.2559148,22.174991 50.5969976,22.3253725 50.1726395,22.3378867 C47.7008751,22.4107223 45.2243047,22.4164873 42.7530425,22.3364806 C42.3076672,22.3220682 41.5059344,22.2438192 41.318359,21.5317041 C41.1236821,20.7923812 41.7305947,20.3068578 42.087813,20.1398844 C43.5770835,19.4436582 43.50399,18.2438403 43.1649913,17.0830414 C42.6190497,15.2131505 41.8973683,13.3912777 41.2082525,11.5642024 C41.0889645,11.2479021 40.8730555,10.689051 40.2959111,10.3986228 C39.9247771,10.2072537 39.2629906,10.175687 38.8669661,10.3693058 C38.357392,10.6184652 37.8212058,11.3315645 37.7764459,11.8822603 C37.6353518,13.6189239 37.7075128,15.0078612 37.6487655,17.1101087 C37.6091702,18.5257616 37.8060706,19.3591521 38.8686159,20.1151372 C39.0313008,20.2307882 39.4338529,20.7085079 39.5019252,20.9114772 C39.7949447,21.7844491 39.4316293,22.3826005 38.5831998,22.3720548 C37.9894858,22.3899824 37.5832754,22.3655164 37.0811613,22.3720548 C35.3459983,22.3950444 33.6096877,22.4070664 31.8749551,22.3706487 C30.5652263,22.3431596 29.9868625,21.3473655 30.8883009,20.4505604 C32.1846161,19.1608932 32.1890634,17.6869577 32.1333287,16.1042611 C32.0939486,14.9836764 32.1252231,13.8606311 32.1237885,12.7387106 C32.1219953,11.4383572 31.5338762,10.3949669 30.7057465,10.2203304 C29.6454249,9.9967618 27.3334046,10.7464898 27.3334046,12.8834678 C27.3334046,14.8373023 27.2476865,16.794652 27.3516959,18.7434246 C27.3773037,19.2223394 27.902013,19.7200958 28.2873497,20.1272296 C29.2462442,21.1403186 29.0627574,21.9784194 27.6904795,22.276089 C26.9847939,22.4292124 26.2264581,22.3916697 25.4936584,22.3732499 C23.9188851,22.3338794 22.3436096,22.2758078 20.7717772,22.1768893 C19.7979627,22.115654 19.6087374,21.5806361 19.8611573,20.8885579 C19.932601,20.6927596 20.2441987,20.3548758 20.4088204,20.2508251 C21.7628787,19.3954996 21.7753599,18.1033014 21.7158235,16.7328543 C21.6527005,15.2809945 21.7409292,13.822526 21.670418,12.3712286 C21.6527723,12.0073321 21.3611874,11.5602653 21.0566193,11.3218625 C19.5660577,10.1548065 19.599269,9.17546373 21.2544523,8.20870548 C22.5648985,7.44329955 23.8828046,6.68759564 25.2271793,5.98187829 C25.9183752,5.61896606 26.5682544,5.79022802 26.9763297,6.47991592 C27.2075174,6.87059846 27.3557845,7.30838506 27.6156644,7.89177245" id="Fill-6" fill="#FFFFFF"></path>
                <g id="Group-10" transform="translate(53.571184, 6.147513)">
                    <mask id="mask-4" fill="white">
                        <use xlink:href="#path-3"></use>
                    </mask>
                    <g id="Clip-9"></g>
                    <path d="M7.98160752,14.3730529 C7.60418536,13.9652642 7.23589664,13.4667932 7.21081479,12.9871908 C7.19437459,12.6707181 7.19008889,12.353682 7.18299291,12.0367868 C7.18299291,12.0367868 7.21685692,8.61254435 7.21552203,6.91668678 C7.23561562,6.00472419 7.31036937,2.22176562 7.19486639,1.04162843 C7.18636526,0.941230168 7.1723138,0.848154082 7.15264176,0.762540979 C7.15229047,0.761132869 7.15193918,0.759443136 7.15165815,0.758105432 C7.03271256,0.246820603 6.71507936,0.00124617756 6.20606529,0.0323654139 C5.85948608,0.0482066541 5.44405472,0.194438903 5.17019181,0.341445612 C3.85349994,1.04817614 2.81088176,1.67091289 1.52742158,2.4374177 C-0.0937653791,3.4055639 -0.126364762,4.38631268 1.33365198,5.55504418 C1.63196443,5.79385968 1.91749006,6.24149792 1.93484361,6.60591685 C2.00390652,8.05929784 1.91749006,9.51978978 1.97924622,10.9738748 C2.03755977,12.3461487 2.02540526,13.6403428 0.699228652,14.4968962 C0.537917914,14.6009556 0.23264999,14.9393245 0.162743986,15.1354038 C-0.0845616741,15.8285461 0.100847314,16.3642616 1.05459002,16.4256552 C2.59420827,16.5247862 4.13705836,16.5828707 5.6794869,16.6222978 C6.39723538,16.6406737 7.13999544,16.6782702 7.83118666,16.524927 C9.17534913,16.2268301 8.92073671,15.387526 7.98160752,14.3730529" id="Fill-8" fill="#FFFFFF" mask="url(#mask-4)"></path>
                </g>
            </g>
        </g>
    </g>
</svg>