<?xml version="1.0" encoding="UTF-8"?>
<svg width="320px" height="328px" viewBox="0 0 320 328" version="1.1" xmlns="http://www.w3.org/2000/svg" xmlns:xlink="http://www.w3.org/1999/xlink">
    <!-- Generator: Sketch 58 (84663) - https://sketch.com -->
    <title>Group</title>
    <desc>Created with Sketch.</desc>
    <defs>
        <path d="M455.48992,833.760978 C426.901853,825.703865 259.927751,742.866412 233.730609,729.179059 C227.104525,725.715961 222.057018,722.693868 217.071273,717.953753 C212.034824,713.164938 209.172187,702.52944 205.189741,697.015539 C177.697481,658.94852 212.037521,608.379177 228.303898,574.535514 C248.4087,532.705081 263.4992,488.67673 285.688273,447.571384 C307.877346,406.466037 337.349744,367.418564 378.166784,283.364028 C398.86155,240.747295 404.19799,188.571515 421.80686,149.34709 C447.76068,91.5339707 482.565304,53.5556802 487.030209,47.9887833 C493.589407,39.8126261 500.445278,34.1445092 511.03385,33.8577214 C520.713521,33.5979891 530.501072,34.8668897 540.010829,36.3928171 C550.526582,38.0783717 560.163099,44.3308864 570.347116,45.7404754 C586.065455,47.9157336 742.497652,123.701507 753.525841,134.75907 C772.936426,154.222761 786.058711,168.418426 774.590905,192.944192 C767.669294,207.749731 738.990328,258.998251 710.19332,325.791669 C683.190974,388.422445 668.971345,470.726999 638.897416,533.81407 C604.60246,605.755726 567.056785,660.800784 559.151125,676.39836 C548.810681,696.800875 538.591603,718.396536 529.931413,739.556604 C520.464808,762.69172 505.102478,782.910258 492.758134,804.532975 C483.750026,820.309008 476.154897,839.583311 455.48992,833.760978 Z" id="path-1"></path>
    </defs>
    <g id="current-version" stroke="none" stroke-width="1" fill="none" fill-rule="evenodd">
        <g id="Mobile-about">
            <g id="Group" transform="translate(-289.000000, -286.990381)">
                <mask id="mask-2" fill="white">
                    <use xlink:href="#path-1"></use>
                </mask>
                <use id="Mask" fill="#EE797F" fill-rule="nonzero" transform="translate(486.870849, 434.323799) rotate(65.000000) translate(-486.870849, -434.323799) " xlink:href="#path-1"></use>
                <path d="M466.326243,-69.0304197 C506.318433,-75.8676853 542.127168,-64.4649348 582.938183,-41.6323093 C623.019699,-19.2080402 639.001687,5.69683307 666.138314,41.4144038 C690.10013,72.9532936 685.235561,115.152537 684.439067,152.056902 C683.508583,194.984423 646.527439,235.931474 623.581711,269.242755 C591.398141,315.971439 559.947791,352.062066 498.416765,340.985554 C455.197658,333.204872 379.385568,311.441997 354.694253,273.170252 C336.572152,245.079536 314.043281,207.955944 305.326509,176.023188 C286.415359,106.732753 324.554025,36.6991756 371.037268,-11.8606077 C398.188783,-40.223315 426.549926,-62.2291957 466.326243,-69.0304197 Z" id="Path" fill="#FAD9BD" fill-rule="nonzero" mask="url(#mask-2)" transform="translate(492.875644, 136.000000) rotate(-330.000000) translate(-492.875644, -136.000000) "></path>
                <path d="M289.674477,491.340201 C307.229609,494.610647 324.505834,502.633993 339.7247,510.160803 C347.756399,514.131994 357.517097,520.924363 366.453142,523.165324 C384.546987,527.709784 401.227143,523.036773 408.143136,545.387316 C411.919906,557.58926 402.031006,564.961847 401.310301,576.385535 C400.722011,585.695769 401.344408,598.746216 400.94044,611.791022 C348.400514,608.126905 312.99999,602.97866 289.674477,602.97866 C278.845145,602.97866 289,523.165324 289.674477,491.340201 Z" id="Shape" fill="#F8C5B0" fill-rule="nonzero" mask="url(#mask-2)"></path>
            </g>
        </g>
    </g>
</svg>