<?xml version="1.0" encoding="UTF-8"?>
<svg width="320px" height="327px" viewBox="0 0 320 327" version="1.1" xmlns="http://www.w3.org/2000/svg" xmlns:xlink="http://www.w3.org/1999/xlink">
    <!-- Generator: Sketch 58 (84663) - https://sketch.com -->
    <title>Rectangle</title>
    <desc>Created with Sketch.</desc>
    <defs>
        <path d="M480.742098,879.877471 C450.587562,871.367711 274.464194,783.876468 246.831592,769.420163 C239.842435,765.762509 234.518352,762.570635 229.259416,757.564221 C223.946997,752.506372 220.927504,741.273374 216.726841,735.449704 C187.728156,695.244088 223.949842,641.833771 241.107527,606.088778 C262.313962,561.908321 278.231339,515.406467 301.636252,471.991832 C325.041165,428.577196 356.128488,387.336044 399.182078,298.559344 C421.010803,253.548412 426.639651,198.441409 445.213391,157.013364 C472.589339,95.9523167 509.301065,55.8404144 514.010623,49.9607704 C520.929228,41.3252785 528.160763,35.3387281 539.329531,35.0358286 C549.539595,34.7615046 559.863451,36.1016918 569.89429,37.7133455 C580.986248,39.4935941 591.150794,46.0973737 601.892839,47.586153 C618.472457,49.8836168 783.476281,129.927018 795.108755,141.605792 C815.582933,162.162949 829.424248,177.156124 817.328068,203.059742 C810.027192,218.697052 779.776775,272.824703 749.401849,343.37056 C720.919923,409.519919 705.921135,496.448324 674.19932,563.079612 C638.025189,639.062934 598.422217,697.200412 590.08337,713.674256 C579.176325,735.22298 568.397298,758.03188 559.262577,780.380716 C549.277254,804.815558 533.073153,826.169969 520.052406,849.007445 C510.550703,865.669772 502.539402,886.026901 480.742098,879.877471 Z" id="path-1"></path>
    </defs>
    <g id="current-version" stroke="none" stroke-width="1" fill="none" fill-rule="evenodd">
        <g id="Mobile-faq-02">
            <g id="Group-4" transform="translate(-353.000000, -320.747632)">
                <mask id="mask-2" fill="white">
                    <use xlink:href="#path-1"></use>
                </mask>
                <use id="Mask" fill="#6BA7AF" fill-rule="nonzero" transform="translate(513.842530, 458.000000) scale(-1, 1) rotate(65.000000) translate(-513.842530, -458.000000) " xlink:href="#path-1"></use>
                <path d="M657.248281,337.863042 C663.539611,328.452496 669.037068,318.565467 674.052694,308.408125 C684.285857,287.694845 701.163693,301.44872 715.283622,300.761484 C746.887117,299.226658 750.972893,303.077032 778.419163,316.592665 C743.191544,336.931176 623.590193,405.983048 598.54123,420.444294 C602.034706,389.624068 640.457633,362.965467 657.248281,337.863042 Z" id="Shape" fill="#F0D27D" fill-rule="nonzero" mask="url(#mask-2)" transform="translate(688.480196, 358.680965) rotate(-60.000000) translate(-688.480196, -358.680965) "></path>
                <path d="M353,544.606008 C378.554855,558.134229 396.772165,569.132089 407.651931,577.599587 C423.97158,590.300835 429.485153,593.59802 435.997329,614.689612 C440.33878,628.750673 444.083772,637.075792 447.232304,639.664969 C423.469431,636.077692 404.479364,633.217113 390.262104,631.083233 C376.044844,628.949352 362.855714,627.536224 350.694714,626.843848 L353,544.606008 Z" id="Path-2" fill="#A8CED4" mask="url(#mask-2)"></path>
            </g>
        </g>
    </g>
</svg>