<?xml version="1.0" encoding="UTF-8"?>
<svg width="320px" height="441px" viewBox="0 0 320 441" version="1.1" xmlns="http://www.w3.org/2000/svg" xmlns:xlink="http://www.w3.org/1999/xlink">
    <!-- Generator: Sketch 58 (84663) - https://sketch.com -->
    <title>Shape</title>
    <desc>Created with Sketch.</desc>
    <g id="current-version" stroke="none" stroke-width="1" fill="none" fill-rule="evenodd">
        <g id="Mobile-main-screen" transform="translate(0.000000, -1140.000000)" fill="#9FAEE3">
            <path d="M310.129972,1485.38136 C319.289935,1445.94066 346.618279,1433.98436 345.927914,1396.64537 C345.793209,1389.36762 342.700599,1384.36487 344.159907,1378.08767 C345.854949,1370.78756 341.117811,1368.26662 341.723985,1362.40306 C342.913882,1350.94983 346.898915,1340.12823 349.396576,1329.3793 C354.644472,1306.78027 372.739888,1290.06716 371.976558,1264.8298 L371.970945,1264.48324 C371.448962,1247.3006 371.364771,1244.38279 361.974687,1229.41366 C355.374126,1218.88831 348.16739,1208.7766 340.101908,1199.33006 C304.977493,1158.19569 267.383729,1156.30942 217.621334,1144.84501 C176.704589,1135.42642 152.450538,1144.65229 110.450538,1142.0531 C87.7919782,1140.65009 48.4174352,1144.87586 25.6815946,1161.86288 C2.94575392,1178.84991 -24.1793952,1205.34526 -28.2149424,1213.62356 C-33.0699471,1223.57876 -59.490338,1247.02523 -68.6412509,1268.58082 C-97.0448912,1335.48749 -93.8554325,1383.6438 -78.005105,1457.9305 C-74.7048244,1473.39711 -66.4990246,1478.46135 -53.662729,1485.38136 C-27.2043566,1499.65738 -16.7455499,1527.47235 12.0364894,1537.12011 C59.0374249,1552.86621 114.243177,1559.35539 162.523813,1570.47324 C215.333916,1582.63636 240.077587,1591.76953 278.771693,1547.7453 C293.830627,1530.61296 304.994331,1507.51086 310.129972,1485.38136 Z" id="Shape"></path>
        </g>
    </g>
</svg>