<?xml version="1.0" encoding="UTF-8"?>
<svg width="320px" height="563px" viewBox="0 0 320 563" version="1.1" xmlns="http://www.w3.org/2000/svg" xmlns:xlink="http://www.w3.org/1999/xlink">
    <!-- Generator: Sketch 58 (84663) - https://sketch.com -->
    <title>Shape + Path Mask</title>
    <desc>Created with Sketch.</desc>
    <defs>
        <path d="M657.259187,1091.84058 C623.147234,1082.22181 300.65195,925.852454 269.392905,909.512176 C261.486506,905.377849 255.463702,901.770004 249.514594,896.111144 C243.504984,890.394146 240.089219,877.697243 235.33727,871.11462 C202.532859,825.66933 243.508202,765.298476 262.917626,724.895126 C286.907148,674.956986 304.913487,622.39492 331.390011,573.322405 C357.866535,524.249889 400.284155,481.015056 448.988007,380.668803 C473.681488,329.791959 472.798591,264.122358 493.809909,217.295329 C524.778618,148.276687 566.308312,102.937324 571.635943,96.2914333 C579.462531,86.5305473 587.643118,79.7638179 600.277651,79.421444 C611.827662,79.1113695 623.506399,80.6262125 634.853664,82.4479 C647.401307,84.4601542 658.899827,91.9245511 671.051635,93.6073511 C689.807126,96.2042248 999.72356,244.155122 1012.88266,257.355897 C1036.04382,280.592103 1051.70164,297.539216 1038.01798,326.818644 C1029.75896,344.493839 973.787152,395.532673 939.425885,475.272204 C907.206051,550.042276 911.990242,658.442198 876.105323,733.757006 C835.183776,819.642623 790.383394,885.35669 780.950175,903.977437 C768.611713,928.334433 756.418069,954.115833 746.084526,979.377213 C734.788751,1006.99645 716.458058,1031.13381 701.728496,1056.94751 C690.97981,1075.7813 681.917123,1098.79141 657.259187,1091.84058 Z" id="path-1"></path>
    </defs>
    <g id="current-version" stroke="none" stroke-width="1" fill="none" fill-rule="evenodd">
        <g id="Mobile-main-screen" transform="translate(0.000000, -3398.000000)">
            <g id="Group-2" transform="translate(-276.000000, 3091.000000)">
                <g id="Shape-+-Path-Mask" transform="translate(0.470852, 0.800910)">
                    <mask id="mask-2" fill="white">
                        <use xlink:href="#path-1"></use>
                    </mask>
                    <use id="Mask" fill="#9FAEE3" fill-rule="nonzero" transform="translate(633.074719, 586.245172) rotate(65.000000) translate(-633.074719, -586.245172) " xlink:href="#path-1"></use>
                    <path d="M174.581993,192.508628 C218.447366,140.296082 299.976004,128.434531 363.180977,164.397274 C379.186021,173.503599 392.118687,181.918101 402.515616,192.818339 C412.941221,203.750756 420.736869,217.096509 426.639933,235.972826 C439.335001,276.573198 440.441057,311.960762 421.674969,349.315196 C407.517448,377.494928 373.262475,397.236024 343.054849,408.27704 C310.475346,420.190881 276.511225,405.799348 248.904879,391.500326 C230.765556,382.104401 210.647621,370.439939 193.057229,356.040362 C175.470934,341.644807 160.317963,324.437715 152.231463,303.936417 C136.640165,264.397913 147.246016,225.044432 174.581993,192.508628 Z M359.679919,172.158868 C300.186905,138.304195 223.667722,149.603284 182.659812,198.424021 C156.978608,228.995065 147.270774,265.571896 161.718176,302.218427 C169.206063,321.211583 183.318304,337.319948 199.977768,350.96172 C216.637231,364.599619 235.749283,375.697354 253.118499,384.692482 C279.769697,398.500758 311.124976,411.530722 340.847825,400.661447 C369.711085,390.105822 401.578963,371.50763 414.579259,345.621952 C432.125913,310.683063 431.187462,277.587343 419.145332,239.070538 C413.593492,221.316486 406.334303,208.960286 396.728989,198.884814 C387.09213,188.782236 375.022398,180.890686 359.679919,172.158868 Z" id="Shape" fill="#CFD6F1" fill-rule="nonzero" mask="url(#mask-2)" transform="translate(290.500000, 278.199090) scale(-1, 1) rotate(-180.000000) translate(-290.500000, -278.199090) "></path>
                    <path d="M663.141537,698.204841 C696.070172,692.57318 725.554247,701.9653 759.157083,720.771883 C792.159266,739.242115 805.318461,759.755549 827.662126,789.175094 C847.391725,815.152778 843.386353,849.911092 842.730538,880.308166 C841.964399,915.666341 811.51499,949.39326 792.622014,976.830813 C766.122814,1015.3199 740.227332,1045.04672 689.564123,1035.92331 C653.978521,1029.51459 591.556618,1011.58913 571.226366,980.065781 C556.305052,956.928258 537.755306,926.350613 530.57812,900.048513 C515.007121,842.975956 546.409607,785.291295 584.682823,745.293985 C607.038746,721.932432 630.390648,703.806815 663.141537,698.204841 Z" id="Path" fill-opacity="0.5" fill="#FFFFFF" fill-rule="nonzero" mask="url(#mask-2)" transform="translate(685.001694, 867.082553) rotate(-98.000000) translate(-685.001694, -867.082553) "></path>
                </g>
            </g>
        </g>
    </g>
</svg>