<?xml version="1.0" encoding="UTF-8"?>
<svg width="320px" height="327px" viewBox="0 0 320 327" version="1.1" xmlns="http://www.w3.org/2000/svg" xmlns:xlink="http://www.w3.org/1999/xlink">
    <!-- Generator: Sketch 58 (84663) - https://sketch.com -->
    <title>Rectangle</title>
    <desc>Created with Sketch.</desc>
    <defs>
        <path d="M455.48992,833.760978 C426.901853,825.703865 259.927751,742.866412 233.730609,729.179059 C227.104525,725.715961 222.057018,722.693868 217.071273,717.953753 C212.034824,713.164938 209.172187,702.52944 205.189741,697.015539 C177.697481,658.94852 212.037521,608.379177 228.303898,574.535514 C248.4087,532.705081 263.4992,488.67673 285.688273,447.571384 C307.877346,406.466037 337.349744,367.418564 378.166784,283.364028 C398.86155,240.747295 404.19799,188.571515 421.80686,149.34709 C447.76068,91.5339707 482.565304,53.5556802 487.030209,47.9887833 C493.589407,39.8126261 500.445278,34.1445092 511.03385,33.8577214 C520.713521,33.5979891 530.501072,34.8668897 540.010829,36.3928171 C550.526582,38.0783717 560.163099,44.3308864 570.347116,45.7404754 C586.065455,47.9157336 742.497652,123.701507 753.525841,134.75907 C772.936426,154.222761 786.058711,168.418426 774.590905,192.944192 C767.669294,207.749731 738.990328,258.998251 710.19332,325.791669 C683.190974,388.422445 668.971345,470.726999 638.897416,533.81407 C604.60246,605.755726 567.056785,660.800784 559.151125,676.39836 C548.810681,696.800875 538.591603,718.396536 529.931413,739.556604 C520.464808,762.69172 505.102478,782.910258 492.758134,804.532975 C483.750026,820.309008 476.154897,839.583311 455.48992,833.760978 Z" id="path-1"></path>
    </defs>
    <g id="current-version" stroke="none" stroke-width="1" fill="none" fill-rule="evenodd">
        <g id="Mobile-about">
            <g id="Group" transform="translate(-289.000000, -286.990381)">
                <mask id="mask-2" fill="white">
                    <use xlink:href="#path-1"></use>
                </mask>
                <use id="Mask" fill="#EE797F" fill-rule="nonzero" transform="translate(486.870849, 434.323799) rotate(65.000000) translate(-486.870849, -434.323799) " xlink:href="#path-1"></use>
                <path d="M289.08525,346.822914 C303.657092,349.206386 316.492042,347.933623 322.20026,366.32306 C325.725246,377.675785 316.495606,384.535261 315.822948,395.163894 C314.645797,413.734909 318.66234,461.300593 307.298305,477.518309 C301.872598,485.265148 295.232945,501.106553 289,501.106553 C289,487.61017 289,371.378474 289.08525,346.822914 Z" id="Shape" fill="#F8C5B0" fill-rule="nonzero"></path>
                <path d="M630.016221,321.485316 C618.700104,323.464169 608.687521,323.241348 594.580444,320.701862 C583.905193,318.780009 571.610941,316.238462 558.22021,312.572412 C563.891152,307.813926 568.38549,304.042729 595.96309,280.902375 C612.943152,301.138424 617.207656,306.220663 630.016221,321.485316 Z" id="Path" fill="#FAD9BD" fill-rule="nonzero" transform="translate(594.118216, 301.855686) rotate(-320.000000) translate(-594.118216, -301.855686) "></path>
            </g>
        </g>
    </g>
</svg>