<?xml version="1.0" encoding="UTF-8"?>
<svg width="403px" height="216px" viewBox="0 0 403 216" version="1.1" xmlns="http://www.w3.org/2000/svg" xmlns:xlink="http://www.w3.org/1999/xlink">
    <!-- Generator: Sketch 58 (84663) - https://sketch.com -->
    <title>illustration-heart-about-team-part-01</title>
    <desc>Created with Sketch.</desc>
    <g id="current-version" stroke="none" stroke-width="1" fill="none" fill-rule="evenodd" stroke-linecap="round" stroke-linejoin="round">
        <g id="Website-about" transform="translate(0.000000, -877.000000)" stroke="#F8C5B0" stroke-width="4.5">
            <g id="Group-10" transform="translate(-495.000000, 877.000000)">
                <g id="Group-9">
                    <g id="illustration-heart-about-team" transform="translate(445.000000, 0.000000)">
                        <path d="M400,3.31712104 C375.612116,0.523972857 347.319089,16.4241367 338.870968,41.4523664 C323.139167,88.0590789 358.476593,87.6391244 358.476593,58.3575927 C358.476593,29.0760609 312.113042,-14.2286566 270.854783,13.6118549 C229.596523,41.4523664 250.67417,107.151676 283.112376,137.976663 C304.737846,158.526654 323.324044,170.2011 338.870968,173" id="Path-21"></path>
                        <path d="M0,183.135215 C25.7834571,205.848543 50.0875356,215.606096 72.9122353,212.407872 C107.149285,207.610537 109.133898,169.159221 156.850465,156.593043 C204.567032,144.026865 211.641962,197.358834 193.484901,197.358834 C175.327839,197.358834 172.393848,167.921093 205.557687,156.593043 C238.721527,145.264993 277.172164,179.992019 291.648941,188.675427 C306.125719,197.358834 314.769811,202.898652 344.136866,197.358834 C373.503921,191.819016 430.218935,151.357391 446.888632,81.5556331 C463.558329,11.7538755 408.376257,3 396.505937,3" id="Path-2"></path>
                    </g>
                </g>
            </g>
        </g>
    </g>
</svg>