<?xml version="1.0" encoding="UTF-8"?>
<svg width="311px" height="336px" viewBox="0 0 311 336" version="1.1" xmlns="http://www.w3.org/2000/svg" xmlns:xlink="http://www.w3.org/1999/xlink">
    <!-- Generator: Sketch 58 (84663) - https://sketch.com -->
    <title>Shape</title>
    <desc>Created with Sketch.</desc>
    <g id="current-version" stroke="none" stroke-width="1" fill="none" fill-rule="evenodd">
        <g id="Mobile-main-screen" transform="translate(0.000000, -1262.000000)" fill="#4E63CB" fill-rule="nonzero">
            <path d="M25.407215,1585.88951 C5.82763469,1580.3501 -13.0730116,1571.51522 -25.9727574,1556.49051 C-53.6557434,1524.25135 -69.1726703,1478.32083 -70.8481042,1432.54208 C-72.5235381,1386.76334 -60.3903306,1340.41005 -31.8860535,1307.52046 C6.06854675,1263.73633 63.5260734,1255.5302 119.143908,1266.20793 C174.772693,1276.87482 229.722544,1306.57735 264.293425,1340.33417 C281.726698,1357.3535 297.309328,1379.74964 305.314179,1403.99947 C313.340931,1428.31435 313.822755,1454.75394 300.53974,1479.3073 C286.150719,1505.89865 264.545288,1527.98042 240.727845,1545.81278 C224.783847,1557.75883 208.653689,1561.11934 193.443378,1564.29556 L193.333872,1564.31724 C178.014055,1567.51514 163.603134,1570.53959 149.060806,1581.05472 C145.15146,1583.88405 140.716488,1586.10632 136.75239,1588.0901 C136.56623,1588.17682 136.391022,1588.26355 136.204862,1588.36111 C131.934148,1590.49666 128.287616,1592.37203 125.385721,1594.63766 C122.615232,1596.80573 118.596381,1597.51035 115.223612,1597.80304 C111.555178,1598.11741 107.361118,1598.01985 103.309415,1597.75968 C97.571328,1597.39111 91.5375759,1596.64313 87.3106643,1596.12279 C85.6461809,1595.90598 84.2554613,1595.74338 83.2808625,1595.63498 C65.9242435,1593.868 45.0305974,1591.45061 25.407215,1585.88951 Z M26.9167908,1579.07082 C45.9669121,1584.46398 66.4558306,1586.85726 84.1340754,1588.65498 C85.4390311,1588.78733 87.0897441,1588.99688 88.9635266,1589.22848 C93.1906905,1589.74684 98.6112753,1590.43064 104.143395,1590.78357 C108.069415,1591.0262 111.761213,1591.09238 114.761495,1590.83871 C116.25606,1590.70636 117.471788,1590.50784 118.386372,1590.26521 C118.832511,1590.14389 119.167115,1590.02257 119.412491,1589.91228 C119.524026,1589.85713 119.613253,1589.81302 119.669021,1589.77993 C119.680174,1589.7689 119.702481,1589.7689 119.713634,1589.75787 C119.713634,1589.74684 119.724788,1589.74684 119.735941,1589.74684 C119.747095,1589.73582 119.747095,1589.72479 119.758248,1589.72479 L119.758248,1589.72479 C123.639655,1586.69183 128.279497,1584.35369 132.4732,1582.26922 L132.740884,1582.12584 C137.012661,1579.99725 140.871761,1578.06719 144.173187,1575.68494 C160.758392,1563.69647 177.28783,1560.24441 192.668461,1557.04601 L193.114599,1556.94675 C208.718299,1553.70424 223.117425,1550.61614 237.416169,1539.91806 C260.87191,1522.38203 281.7512,1500.94175 295.525731,1475.48694 C307.471094,1453.44007 307.248025,1429.46314 299.708281,1406.64424 C292.135078,1383.75918 277.267506,1362.28581 260.414618,1345.85268 C226.630767,1312.89818 172.469532,1283.60529 117.717164,1273.10574 C62.9647955,1262.61721 8.81471425,1271.07641 -26.5863893,1311.86146 C-53.5443185,1342.93001 -65.5008349,1387.40976 -63.8501219,1432.2314 C-62.2105622,1477.05305 -46.9860801,1521.48868 -20.5300569,1552.27048 C-9.23159501,1565.40596 7.8220557,1573.66664 26.9167908,1579.07082 Z" id="Shape" transform="translate(120.000000, 1430.000000) scale(-1, 1) rotate(-180.000000) translate(-120.000000, -1430.000000) "></path>
        </g>
    </g>
</svg>