<?xml version="1.0" encoding="UTF-8"?>
<svg width="320px" height="371px" viewBox="0 0 320 371" version="1.1" xmlns="http://www.w3.org/2000/svg" xmlns:xlink="http://www.w3.org/1999/xlink">
    <!-- Generator: Sketch 58 (84663) - https://sketch.com -->
    <title>Path</title>
    <desc>Created with Sketch.</desc>
    <g id="current-version" stroke="none" stroke-width="1" fill="none" fill-rule="evenodd">
        <g id="Mobile-main-screen" fill="#B29DD1" fill-rule="nonzero">
            <path d="M92.0016621,-397.284004 C168.246513,-410.29793 236.515633,-388.594144 314.321568,-345.134943 C390.736718,-302.453001 421.206274,-255.049523 472.942078,-187.065354 C518.625125,-127.03481 509.350856,-46.7135459 507.832345,23.5295453 C506.058383,105.237001 435.554072,183.174866 391.808191,246.578947 C330.450423,335.521467 270.490536,404.215703 153.182034,383.132875 C70.7850875,368.323266 -73.7501693,326.900209 -120.824003,254.054474 C-155.373671,200.587119 -198.324816,129.926755 -214.943285,69.1465354 C-250.99727,-62.7396083 -178.286151,-196.040233 -89.6661492,-288.468033 C-37.9019626,-342.453089 16.1683717,-384.338679 92.0016621,-397.284004 Z" id="Path" transform="translate(142.617923, -7.032867) rotate(-255.000000) translate(-142.617923, 7.032867) "></path>
        </g>
    </g>
</svg>