<?xml version="1.0" encoding="UTF-8"?>
<svg width="36px" height="36px" viewBox="0 0 36 36" version="1.1" xmlns="http://www.w3.org/2000/svg" xmlns:xlink="http://www.w3.org/1999/xlink">
    <!-- Generator: Sketch 58 (84663) - https://sketch.com -->
    <title>ic-facebook-grey</title>
    <desc>Created with Sketch.</desc>
    <g id="current-version" stroke="none" stroke-width="1" fill="none" fill-rule="evenodd">
        <g id="Mobile-menu" transform="translate(-104.000000, -394.000000)" fill="#FFFFFF">
            <g id="Group-7" transform="translate(104.000000, 394.000000)">
                <path d="M18,0 C27.9411255,0 36,8.0588745 36,18 C36,27.9411255 27.9411255,36 18,36 C8.0588745,36 0,27.9411255 0,18 C0,8.0588745 8.0588745,0 18,0 Z M23.1428751,6.42857143 L19.7596491,6.42857143 C15.3433005,6.42799795 15.0927949,9.7405685 15.080667,10.7155598 L15.0803293,14.0965457 L12.8571429,14.0965457 L12.8571429,17.9931291 L15.0803293,17.9931291 L15.0803293,29.5711509 L19.6473124,29.5711509 L19.6473124,17.9931291 L22.7118433,17.9931291 C22.7118433,17.9931291 22.9988726,16.1249709 23.1380241,14.0820634 L19.6645243,14.0820634 L19.6645243,11.4180017 C19.6645243,11.0203329 20.1624519,10.4846297 20.6546233,10.4846297 L23.1428751,10.4846297 L23.1428751,6.42857143 Z" id="Combined-Shape"></path>
            </g>
        </g>
    </g>
</svg>