<?xml version="1.0" encoding="UTF-8"?>
<svg width="36px" height="36px" viewBox="0 0 36 36" version="1.1" xmlns="http://www.w3.org/2000/svg" xmlns:xlink="http://www.w3.org/1999/xlink">
    <!-- Generator: Sketch 58 (84663) - https://sketch.com -->
    <title>ic-instagram-grey</title>
    <desc>Created with Sketch.</desc>
    <g id="current-version" stroke="none" stroke-width="1" fill="none" fill-rule="evenodd">
        <g id="Mobile-menu" transform="translate(-180.000000, -394.000000)" fill="#FFFFFF">
            <g id="instagram" transform="translate(180.000000, 394.000000)">
                <path d="M23.302,9.552 L12.6012,9.552 C10.8932,9.552 9.5036,10.9416 9.5036,12.6496 L9.5036,23.3504 C9.5036,25.0584 10.8932,26.4484 12.6012,26.4484 L23.302,26.4484 C25.01,26.4484 26.4,25.0588 26.4,23.3504 L26.4,12.6496 C26.4,10.9416 25.0104,9.552 23.302,9.552 Z M17.9516,23.5624 C14.8848,23.5624 12.3896,21.0672 12.3896,18 C12.3896,14.9332 14.8848,12.438 17.9516,12.438 C21.0188,12.438 23.514,14.9332 23.514,18 C23.514,21.0668 21.0184,23.5624 17.9516,23.5624 Z M23.6928,13.588 C22.9668,13.588 22.3764,12.9976 22.3764,12.272 C22.3764,11.5464 22.9668,10.956 23.6928,10.956 C24.4184,10.956 25.0088,11.5464 25.0088,12.272 C25.0088,12.9976 24.4184,13.588 23.6928,13.588 Z" id="Shape" fill-rule="nonzero"></path>
                <path d="M17.9516,14.7884 C16.1812,14.7884 14.7396,16.2292 14.7396,17.9996 C14.7396,19.7708 16.1812,21.212 17.9516,21.212 C19.7228,21.212 21.1632,19.7708 21.1632,17.9996 C21.1632,16.2296 19.7224,14.7884 17.9516,14.7884 Z" id="Path"></path>
                <path d="M17.9516,0 C8.0376,0 0,8.0376 0,17.9516 C0,27.8656 8.0376,35.9032 17.9516,35.9032 C27.8656,35.9032 35.9032,27.8656 35.9032,17.9516 C35.9032,8.0376 27.8656,0 17.9516,0 Z M28.75,23.3504 C28.75,26.3548 26.3064,28.7984 23.302,28.7984 L12.6012,28.7984 C9.5972,28.7984 7.1532,26.3548 7.1532,23.3504 L7.1532,12.6496 C7.1532,9.6456 9.5972,7.2016 12.6012,7.2016 L23.302,7.2016 C26.3064,7.2016 28.75,9.6456 28.75,12.6496 L28.75,23.3504 Z" id="Shape" fill-rule="nonzero"></path>
            </g>
        </g>
    </g>
</svg>