<?xml version="1.0" encoding="UTF-8"?>
<svg width="1061px" height="710px" viewBox="0 0 1061 710" version="1.1" xmlns="http://www.w3.org/2000/svg" xmlns:xlink="http://www.w3.org/1999/xlink">
    <!-- Generator: Sketch 58 (84663) - https://sketch.com -->
    <title>Rectangle</title>
    <desc>Created with Sketch.</desc>
    <g id="current-version" stroke="none" stroke-width="1" fill="none" fill-rule="evenodd">
        <g id="Website-cookies">
            <g id="Group-4" transform="translate(-262.415605, -562.577133)">
                <path d="M648.472256,100.713686 C764.501546,80.8790096 868.393381,113.958003 986.798326,180.194678 C1103.08678,245.246724 1149.4553,317.494919 1228.18676,421.110384 C1297.70715,512.603637 1283.59358,635.022214 1281.28271,742.080529 C1278.5831,866.611816 1171.28975,985.397825 1104.71734,1082.03273 C1011.34319,1217.59106 920.096333,1322.28875 741.576447,1290.15616 C616.184908,1267.58466 396.23139,1204.4513 324.594507,1093.42626 C272.01688,1011.93604 206.653896,904.241759 181.363938,811.605916 C126.497042,610.596705 237.148704,407.431666 372.010478,266.561377 C450.785133,184.282123 533.069279,120.443807 648.472256,100.713686 Z" id="Path" fill="#B29DD1" fill-rule="nonzero" transform="translate(725.500000, 695.500000) rotate(-255.000000) translate(-725.500000, -695.500000) "></path>
                <rect id="Rectangle" x="262.415605" y="561.577133" width="1060" height="710"></rect>
            </g>
        </g>
    </g>
</svg>