<?xml version="1.0" encoding="UTF-8"?>
<svg width="320px" height="454px" viewBox="0 0 320 454" version="1.1" xmlns="http://www.w3.org/2000/svg" xmlns:xlink="http://www.w3.org/1999/xlink">
    <!-- Generator: Sketch 58 (84663) - https://sketch.com -->
    <title>Path</title>
    <desc>Created with Sketch.</desc>
    <g id="current-version" stroke="none" stroke-width="1" fill="none" fill-rule="evenodd">
        <g id="Mobile-main-screen" transform="translate(0.000000, -2778.000000)" fill="#EE797F" fill-rule="nonzero">
            <path d="M134.187533,2767.51472 C181.347154,2759.58745 223.573558,2772.80803 271.698756,2799.28064 C318.963712,2825.27979 337.810004,2854.15501 369.810079,2895.56669 C398.066351,2932.13351 392.329949,2981.06017 391.390707,3023.84784 C390.293461,3073.61888 346.684528,3121.09372 319.626448,3159.7155 C281.674914,3213.89368 244.588008,3255.73789 172.029343,3242.89556 C121.064474,3233.87447 31.6652829,3208.64216 2.54877006,3164.26912 C-18.8211879,3131.70017 -45.3877005,3088.65833 -55.6666988,3051.63484 C-77.9671199,2971.2981 -32.9932126,2890.09975 21.820794,2833.79856 C53.8384244,2800.91426 87.2824731,2775.40019 134.187533,2767.51472 Z" id="Path" transform="translate(165.495139, 3005.231145) rotate(-98.000000) translate(-165.495139, -3005.231145) "></path>
        </g>
    </g>
</svg>