<?xml version="1.0" encoding="UTF-8"?>
<svg width="696px" height="664px" viewBox="0 0 696 664" version="1.1" xmlns="http://www.w3.org/2000/svg" xmlns:xlink="http://www.w3.org/1999/xlink">
    <!-- Generator: Sketch 58 (84663) - https://sketch.com -->
    <title>01-01-share</title>
    <desc>Created with Sketch.</desc>
    <g id="current-version" stroke="none" stroke-width="1" fill="none" fill-rule="evenodd">
        <g id="Website-version-with-email" transform="translate(-73.000000, -1005.000000)" fill="#9FAEE3">
            <g id="Group-4" transform="translate(73.000000, 1006.000000)">
                <path d="M602.843415,519.688828 C616.628171,460.348497 657.754384,442.359698 656.715459,386.181495 C656.512742,375.231791 651.858698,367.704921 654.054799,358.260591 C656.605654,347.277248 649.476773,343.484378 650.389,334.662382 C652.179666,317.430475 658.176711,301.148887 661.935422,284.976629 C669.832939,250.97536 697.064591,225.829727 695.915861,187.85898 L695.907414,187.337566 C695.121886,161.4855 694.995188,157.095527 680.864123,134.573786 C670.93099,118.737924 660.08563,103.524395 647.947949,89.3116461 C595.089489,27.423113 538.514925,24.5851304 463.627884,7.33640346 C402.052593,-6.83429612 365.552859,7.04645856 302.347385,3.13585007 C268.248695,1.02496248 208.994251,7.38282066 174.779261,32.9405737 C140.564271,58.4983267 99.7438453,98.3617852 93.6707816,110.816863 C86.3645228,125.794914 46.6046817,161.071197 32.833544,193.502555 C-9.91087353,294.166677 -5.11108188,366.620042 18.7419527,478.387756 C23.7085194,501.657979 36.0573638,509.277358 55.3746053,519.688828 C95.1916043,541.16774 110.930981,583.016628 154.244849,597.532134 C224.976191,621.222852 308.054899,630.986111 380.712053,647.713424 C460.185567,666.013389 497.422124,679.754658 555.652585,613.518202 C578.314657,587.741825 595.114829,552.983664 602.843415,519.688828 Z" id="01-01-share"></path>
            </g>
        </g>
    </g>
</svg>