<?xml version="1.0" encoding="UTF-8"?>
<svg width="320px" height="640px" viewBox="0 0 320 640" version="1.1" xmlns="http://www.w3.org/2000/svg" xmlns:xlink="http://www.w3.org/1999/xlink">
    <!-- Generator: Sketch 58 (84663) - https://sketch.com -->
    <title>Mobile-404</title>
    <desc>Created with Sketch.</desc>
    <g id="Mobile-404" stroke="none" stroke-width="1" fill="none" fill-rule="evenodd">
        <rect fill="#4E63CB" x="0" y="0" width="320" height="640"></rect>
        <path d="M262.806921,333.351139 C267.792721,386.762329 294.691046,428.598308 337.939557,472.917347 C380.414714,516.444257 417.786527,528.345496 472.831961,550.798002 C521.43749,570.623693 573.787042,549.991997 620.755938,536.36494 C675.389248,520.508711 715.102903,459.288042 749.863304,418.601395 C798.626319,361.532296 834.023082,309.034523 798.706075,234.236528 C773.898815,181.698966 719.995899,92.3137059 662.520814,73.8568994 C620.335508,60.3110416 565.07307,44.2236331 521.200431,44 C426.002925,43.5262695 349.452274,116.1638 303.257537,192.121016 C276.276775,236.488096 257.84914,280.227959 262.806921,333.351139 Z" id="Path" fill="#D5E1F3" fill-rule="nonzero"></path>
        <path d="M203.691235,51.3362055 C207.962217,97.1764919 231.003995,133.082334 268.051741,171.119276 C304.437014,208.476371 336.450624,218.690654 383.603892,237.960596 C425.24058,254.976065 470.084471,237.268884 510.319165,225.57345 C557.119381,211.964827 591.139037,159.422056 620.915624,124.502657 C662.687185,75.5229857 693.008891,30.4666605 662.75545,-33.7289163 C641.504924,-78.8194175 595.330336,-155.534557 546.095771,-171.375181 C509.958805,-183.000965 462.619649,-196.808047 425.037278,-197 C343.488777,-197.406621 277.913659,-135.065318 238.342156,-69.8748727 C215.229798,-31.7967302 199.444257,5.7431056 203.691235,51.3362055 Z" id="Path" fill="#9FAEE3"></path>
        <path d="M-223.307796,645.068941 C-249.03803,637.781975 -273.876052,626.159906 -290.828074,606.395259 C-327.207286,563.985404 -347.59864,503.564906 -349.800388,443.344052 C-352.002136,383.123197 -336.05745,322.146552 -298.59895,278.881083 C-248.721439,221.284107 -173.214427,210.48913 -100.125021,224.535434 C-27.0212252,238.567478 45.1903593,277.640445 90.6212027,322.04673 C113.530896,344.435255 134.008594,373.896843 144.528057,405.796926 C155.076302,437.782571 155.709484,472.563216 138.253794,504.862585 C119.344663,539.842873 90.9521844,568.890915 59.6528229,592.348955 C38.7002388,608.063704 17.503016,612.484368 -2.48540385,616.662609 L-2.62930896,616.691129 C-22.7616339,620.89789 -41.6995465,624.876488 -60.8101452,638.708889 C-65.9475576,642.430803 -71.7757146,645.354145 -76.9850796,647.963763 C-77.2297183,648.077845 -77.4599665,648.191926 -77.7046051,648.320268 C-83.3169045,651.129529 -88.1089446,653.596545 -91.9224301,656.576928 C-95.5632294,659.42897 -100.844547,660.355883 -105.276824,660.740909 C-110.097646,661.154455 -115.609211,661.026113 -120.9337,660.683868 C-128.474328,660.199021 -136.4035,659.215066 -141.958237,658.530577 C-144.145595,658.245372 -145.97319,658.031469 -147.253945,657.888867 C-170.062905,655.564453 -197.52,652.384427 -223.307796,645.068941 Z M-223.009547,637.217921 C-197.867517,644.352965 -170.826587,647.519232 -147.495136,649.897581 C-145.772878,650.072674 -143.594294,650.349904 -141.121308,650.656317 C-135.542368,651.342099 -128.388371,652.246747 -121.087173,652.713662 C-115.905677,653.034666 -111.033305,653.122212 -107.073582,652.786617 C-105.101081,652.611524 -103.496584,652.348884 -102.289531,652.02788 C-101.700724,651.867378 -101.25912,651.706876 -100.935276,651.560965 C-100.788075,651.48801 -100.670313,651.429645 -100.596713,651.385872 C-100.581992,651.371281 -100.552552,651.371281 -100.537832,651.35669 C-100.537832,651.342099 -100.523112,651.342099 -100.508392,651.342099 C-100.493672,651.327508 -100.493672,651.312917 -100.478951,651.312917 L-100.478951,651.312917 C-95.3563364,647.300366 -89.2327506,644.207054 -83.6979712,641.449338 L-83.3446874,641.259653 C-77.7068668,638.443572 -72.6136921,635.890131 -68.2565254,632.738455 C-46.3676503,616.877937 -24.5523761,612.310924 -4.25327812,608.079507 L-3.66447179,607.948188 C16.9290293,603.658406 35.9327534,599.5729 54.803996,585.41954 C85.7604884,562.219701 113.316624,533.854616 131.49602,500.178373 C147.261309,471.010778 146.966906,439.289741 137.016079,409.100769 C127.021091,378.82425 107.399121,350.415392 85.1569619,328.674663 C40.5696032,285.076476 -30.9114844,246.322533 -103.17274,232.431812 C-175.433996,218.555682 -246.900364,229.747051 -293.622145,283.704914 C-329.200767,324.808023 -344.980777,383.653902 -342.802193,442.952105 C-340.63833,502.250308 -320.545314,561.037823 -285.629099,601.761564 C-270.717579,619.139556 -248.210458,630.068285 -223.009547,637.217921 Z" id="Shape" fill="#9FAEE3" fill-rule="nonzero" transform="translate(-99.000000, 440.000000) scale(-1, 1) rotate(-210.000000) translate(99.000000, -440.000000) "></path>
    </g>
</svg>