<?xml version="1.0" encoding="UTF-8"?>
<svg width="320px" height="437px" viewBox="0 0 320 437" version="1.1" xmlns="http://www.w3.org/2000/svg" xmlns:xlink="http://www.w3.org/1999/xlink">
    <!-- Generator: Sketch 58 (84663) - https://sketch.com -->
    <title>Shape</title>
    <desc>Created with Sketch.</desc>
    <g id="current-version" stroke="none" stroke-width="1" fill="none" fill-rule="evenodd">
        <g id="Mobile-main-screen" transform="translate(0.000000, -1954.000000)" fill="#6BA7AF" fill-rule="nonzero">
            <path d="M352.547732,2333.78805 C361.393128,2295.49254 387.782977,2283.88339 387.11632,2247.62857 C386.986241,2240.56214 382.471403,2220.07382 383.05676,2214.38052 C384.205794,2203.25984 388.053975,2192.75245 390.465863,2182.31562 C395.533538,2160.37277 393.791758,2146.13993 395.330749,2129.15696 C396.86974,2112.17399 389.040321,2098.37518 379.972707,2083.84069 C373.598818,2073.62095 334.566022,2048.21936 325.414482,2040.14931 C298.776114,2016.65895 281.971475,1998.92929 233.917995,1987.79776 C194.406392,1978.65264 159.846013,1976.63465 119.288356,1974.11092 C97.4079249,1972.74865 52.1836705,1974.68622 37.4305041,1993.34551 C25.013346,2009.05774 9.34793735,2019.54717 -2.19118509,2035.53619 C-7.39977912,2042.75459 -5.96890625,2055.09643 -9.86586682,2063.13436 C-14.5541434,2072.8005 -38.1314952,2063.40711 -40.5596431,2073.92535 C-56.2938247,2142.06596 -101.672648,2113.06854 -86.3666438,2185.19827 C-83.1796997,2200.21579 -34.2047344,2289.79032 -21.8092562,2296.5094 C3.74049637,2310.3709 20.8516568,2344.87641 58.2323603,2367.63312 C98.3653891,2392.06539 111.269842,2406.98127 198.143542,2412.43061 C285.017243,2417.87996 347.588457,2355.275 352.547732,2333.78805 Z" id="Shape" transform="translate(153.025126, 2193.265242) rotate(-45.000000) translate(-153.025126, -2193.265242) "></path>
        </g>
    </g>
</svg>