<?xml version="1.0" encoding="UTF-8"?>
<svg width="320px" height="368px" viewBox="0 0 320 368" version="1.1" xmlns="http://www.w3.org/2000/svg" xmlns:xlink="http://www.w3.org/1999/xlink">
    <!-- Generator: Sketch 58 (84663) - https://sketch.com -->
    <title>Shape</title>
    <desc>Created with Sketch.</desc>
    <g id="current-version" stroke="none" stroke-width="1" fill="none" fill-rule="evenodd">
        <g id="Mobile-main-screen" transform="translate(0.000000, -1704.000000)" fill="#F0D27D" fill-rule="nonzero">
            <path d="M20.9974615,2068.66405 C-0.529825734,2062.5641 -21.310641,2052.83522 -35.4936077,2036.29015 C-65.9303985,2000.78869 -82.9908941,1950.21044 -84.8329941,1899.79932 C-86.6750942,1849.3882 -73.3349185,1798.3444 -41.9951374,1762.1267 C-0.264948598,1713.91204 62.9082483,1704.87552 124.058747,1716.63373 C185.221286,1728.38002 245.637352,1761.08816 283.647221,1798.26084 C302.814694,1817.00236 319.947429,1841.66478 328.748574,1868.36847 C337.573798,1895.14378 338.103553,1924.2588 323.49919,1951.29673 C307.678802,1980.57888 283.924138,2004.89511 257.737422,2024.53193 C240.207371,2037.68681 222.472643,2041.38737 205.749264,2044.88499 L205.628865,2044.90886 C188.785087,2048.43036 172.940618,2051.76086 156.951671,2063.34002 C152.653438,2066.45565 147.777291,2068.90279 143.418858,2071.08731 C143.21418,2071.18281 143.021542,2071.27831 142.816864,2071.38574 C138.121315,2073.73739 134.112038,2075.80254 130.921473,2078.29743 C127.875386,2080.68488 123.456754,2081.46081 119.748474,2081.78311 C115.715117,2082.12929 111.103847,2082.02186 106.649095,2081.73536 C100.340204,2081.3295 93.7062353,2080.50582 89.0588455,2079.93284 C87.2287853,2079.69409 85.6997218,2079.51503 84.6281734,2079.39566 C65.5449798,2077.44988 42.5729082,2074.78787 20.9974615,2068.66405 Z M22.391868,2061.92062 C43.4037904,2067.89999 66.0026788,2070.55341 85.5014475,2072.54653 C86.9407888,2072.69326 88.761494,2072.92559 90.8282405,2073.18237 C95.4907221,2073.75708 101.469524,2074.5152 107.571347,2074.90649 C111.901673,2075.1755 115.973656,2075.24886 119.282911,2074.96763 C120.931387,2074.82089 122.272312,2074.60079 123.281081,2074.33178 C123.773163,2074.19728 124.142225,2074.06277 124.412871,2073.94049 C124.535891,2073.87936 124.634308,2073.83045 124.695818,2073.79376 C124.70812,2073.78153 124.732724,2073.78153 124.745026,2073.76931 C124.745026,2073.75708 124.757328,2073.75708 124.76963,2073.75708 C124.781932,2073.74485 124.781932,2073.73262 124.794234,2073.73262 C129.075352,2070.36999 134.19301,2067.77771 138.818585,2065.46667 L139.113835,2065.30771 C143.825525,2062.94775 148.082038,2060.80789 151.723449,2058.1667 C170.016615,2044.87514 188.248272,2041.04786 205.212816,2037.50181 L205.704898,2037.39176 C222.915483,2033.7968 238.797446,2030.37303 254.568689,2018.51212 C280.439926,1999.07 303.469387,1975.29926 318.662434,1947.07762 C331.837943,1922.63435 331.591901,1896.05123 323.275707,1870.75202 C314.922607,1845.37945 298.523958,1821.57202 279.935542,1803.35268 C242.672595,1766.81617 182.933781,1734.33927 122.542957,1722.69846 C62.1521333,1711.06987 2.42562094,1720.44855 -36.6211247,1765.66676 C-66.3552093,1800.11233 -79.54302,1849.42683 -77.7223148,1899.12039 C-75.9139117,1948.81396 -59.1215966,1998.07955 -29.9411049,2032.20719 C-17.4791158,2046.77044 1.3307374,2055.92902 22.391868,2061.92062 Z" id="Shape" transform="translate(125.000000, 1897.000000) rotate(-195.000000) translate(-125.000000, -1897.000000) "></path>
        </g>
    </g>
</svg>