<?xml version="1.0" encoding="UTF-8"?>
<svg width="22px" height="22px" viewBox="0 0 22 22" version="1.1" xmlns="http://www.w3.org/2000/svg" xmlns:xlink="http://www.w3.org/1999/xlink">
    <!-- Generator: Sketch 58 (84663) - https://sketch.com -->
    <title>send</title>
    <desc>Created with Sketch.</desc>
    <g id="current-version" stroke="none" stroke-width="1" fill="none" fill-rule="evenodd">
        <g id="Mobile-main-screen-version-with-email" transform="translate(-274.000000, -4654.000000)" fill="#FFFFFF">
            <g id="Group-2" transform="translate(-276.000000, 3155.000000)">
                <g transform="translate(276.000000, 1343.000000)" id="ic-send">
                    <g transform="translate(273.000000, 149.000000)">
                        <path d="M6.87497888,5.1367605 L24.2836387,13.841205 C24.9235367,14.1611582 25.1829066,14.9392783 24.8629576,15.5791847 C24.7376102,15.8298827 24.5343334,16.0331622 24.2836387,16.1585113 L6.87497888,24.8629558 C6.23508086,25.182909 5.4569711,24.9235357 5.13702209,24.2836292 C4.95073332,23.9110468 4.95497905,23.4716101 5.14843198,23.1026968 L8.48168483,16.7462072 C8.63025258,16.4628895 8.90540351,16.2677536 9.22191232,16.2212408 L17.5331388,14.9998581 L17.5331388,14.9998581 L9.22191232,13.7784755 C8.90540351,13.7319627 8.63025258,13.5368268 8.48168483,13.2535091 L5.14843198,6.89701951 L5.14843198,6.89701951 C4.8161786,6.26341466 5.06046547,5.48042831 5.69406198,5.14817055 C6.06297049,4.95471507 6.50240134,4.95046928 6.87497888,5.1367605 Z" id="send" transform="translate(15.000000, 15.000000) rotate(-45.000000) translate(-15.000000, -15.000000) "></path>
                    </g>
                </g>
            </g>
        </g>
    </g>
</svg>