<?xml version="1.0" encoding="UTF-8"?>
<svg width="320px" height="946px" viewBox="0 0 320 946" version="1.1" xmlns="http://www.w3.org/2000/svg" xmlns:xlink="http://www.w3.org/1999/xlink">
    <!-- Generator: Sketch 58 (84663) - https://sketch.com -->
    <title>Mask</title>
    <desc>Created with Sketch.</desc>
    <defs>
        <path d="M-124.669776,2621.80041 C-192.893682,2602.56287 -700.125466,2354.06214 -762.643557,2321.38158 C-778.456355,2313.11293 -790.501963,2305.89723 -802.400179,2294.57952 C-814.419399,2283.14552 -821.250929,2257.75171 -830.754827,2244.58647 C-896.363648,2153.69589 -814.412962,2032.95418 -775.594115,1952.14748 C-727.61507,1852.2712 -691.602392,1747.14707 -638.649344,1649.00204 C-585.696296,1550.85701 -500.861056,1464.38734 -403.453353,1263.69483 C-354.066391,1161.94115 -355.832185,1030.60194 -313.809549,936.947886 C-251.872131,798.910603 -168.812742,708.231875 -158.15748,694.940094 C-142.504304,675.418322 -126.14313,661.884863 -100.874064,661.200116 C-77.774043,660.579967 -54.4165689,663.609653 -31.7220377,667.253028 C-6.62675211,671.277536 16.370287,686.20633 40.6739029,689.57193 C78.1848864,694.765677 560.25897,926.429496 586.57716,952.831045 C632.899492,999.303457 664.215131,1033.19768 636.847818,1091.75654 C620.329762,1127.10693 524.750476,1337.95442 456.027942,1497.43348 C391.588275,1646.97363 384.792334,1755.00365 313.022496,1905.63326 C231.179402,2077.4045 141.578638,2208.83263 122.712199,2246.07413 C98.0352753,2294.78812 73.647987,2346.35092 52.9809026,2396.87368 C30.3893528,2452.11215 -6.27203395,2500.38687 -35.7311574,2552.01427 C-57.2285295,2589.68186 -75.3539037,2635.70208 -124.669776,2621.80041 Z" id="path-1"></path>
    </defs>
    <g id="current-version" stroke="none" stroke-width="1" fill="none" fill-rule="evenodd">
        <g id="Mobile-about" transform="translate(0.000000, -1175.000000)">
            <mask id="mask-2" fill="white">
                <use xlink:href="#path-1"></use>
            </mask>
            <use id="Mask" fill="#F8C5B0" fill-rule="nonzero" transform="translate(-104.159319, 1642.728584) rotate(65.000000) translate(104.159319, -1642.728584) " xlink:href="#path-1"></use>
        </g>
    </g>
</svg>