<?xml version="1.0" encoding="UTF-8"?>
<svg width="170px" height="369px" viewBox="0 0 170 369" version="1.1" xmlns="http://www.w3.org/2000/svg" xmlns:xlink="http://www.w3.org/1999/xlink">
    <!-- Generator: Sketch 58 (84663) - https://sketch.com -->
    <title>Group 12</title>
    <desc>Created with Sketch.</desc>
    <g id="current-version" stroke="none" stroke-width="1" fill="none" fill-rule="evenodd">
        <g id="Mobile-main-screen" transform="translate(-150.000000, -2573.000000)" stroke="#F8C5B0">
            <g id="Group-12" transform="translate(497.500000, 2836.000000) rotate(4.000000) translate(-497.500000, -2836.000000) translate(137.000000, 2454.000000)">
                <path d="M585.875741,408.096913 C589.998562,413.513507 602.922764,430.512691 614.417721,440.906482 C630.959656,455.869423 648.730128,473.232872 659.12641,483.899658 C669.522693,494.566444 684.969632,511.421163 699.161794,530.046203 C707.139802,540.516118 715.114459,552.022508 719.364723,566.10455 C728.58432,596.627305 678.985521,591.996408 666.741113,592.794981 C636.300576,594.77083 601.788697,595.223629 573.626896,611.293869 C556.041806,621.329537 548.817369,637.971951 552.568,661.077038 C553.864347,669.070995 556.200474,675.895908 553.243181,683.848701 C549.823389,693.052866 541.95753,698.791061 534.746596,702.841552 C512.158415,715.532268 485.458381,718.228479 460.97294,720.471891 C435.677283,722.789397 409.321591,724.423589 384.839527,722.727652 C375.049402,722.05257 363.78063,725.884894 354.091782,728.82397 C339.183785,733.351958 324.427703,738.57561 309.593976,743.432906 C279.447143,753.312152 248.517099,762.829159 217.15494,763.91176 C194.512744,764.693867 170.905039,760.454024 152.067488,744.066824 C132.976744,727.449108 124.506598,701.688974 113.919759,677.200792 C95.635857,634.864105 70.9411105,583.389115 28.6410186,574.44428 C22.2267987,573.085884 16.0623958,573.822711 9.65492779,573.489287 C6.36004433,573.320516 2.60941367,572.78539 0.938340603,568.821343 C-3.39969756,558.530461 8.4868646,539.714613 12.4873122,531.831798 C23.5400258,510.04806 35.9667328,489.330457 47.5494635,467.966586 C56.7488051,451.003097 68.4091816,432.154318 71.9673857,412.045936 C76.2851684,387.644197 48.0727288,370.281422 38.1509435,353.099766 C20.9507065,323.305605 53.5383193,306.329767 69.6042521,292.124234 C88.0535739,275.815245 103.282282,246.062248 86.7437227,220.829006 C80.4172764,211.180275 72.632439,205.429731 69.8068064,192.837808 C65.3877465,173.145177 68.7298926,150.641077 72.3151039,131.174845 C77.7165522,101.911694 86.2643442,72.9655024 97.8842098,46.5179366 C106.209192,27.5827144 120.02002,-2.10853727 140.245068,0.118409512 C153.860094,1.60441282 167.701305,7.03388197 180.958485,11.8335492 C200.808807,19.0165845 220.409313,27.20401 239.905165,35.7083945 C284.909357,55.2857677 329.417291,76.871921 373.050866,100.615043 C402.822973,116.821124 398.172463,241.218802 404.421263,243.581588 C423.052884,250.620551 427.787978,288.954812 443.610851,276.02049 C459.433724,263.086168 492.826446,255.690893 517.575794,261.219584 C535.786918,265.287719 555.961484,274.609054 575.790502,308.314441 C586.113466,325.861427 581.539764,358.689429 576.743075,378.424287 C574.057804,389.472206 581.752919,402.680318 585.875741,408.096913 Z" id="Shape" transform="translate(360.250000, 382.000000) rotate(-180.000000) translate(-360.250000, -382.000000) "></path>
                <path d="M582.489789,381.915081 C594.324294,400.987779 622.478772,434.110992 649.22178,464.106196 C661.237989,477.583687 674.627578,494.136184 685.7428,509.070378 C691.524876,516.835993 695.244199,529.048349 696.358084,539.873271 C699.335195,568.831689 654.631277,564.915941 641.251156,566.015316 C615.38202,568.148183 586.157729,569.766363 562.688509,584.544091 C548.349772,593.577899 541.288416,608.405037 543.968491,627.893192 C545.156635,636.539954 547.006359,643.885585 543.968491,652.375881 C540.890118,660.977351 534.47684,667.046554 527.982553,671.596398 C509.319917,684.681832 486.127481,688.865217 465.115559,691.982169 C440.466427,695.612625 415.632018,697.030114 390.81268,696.2232 C369.075045,695.527342 347.442049,703.35472 326.217476,708.513955 C298.100319,715.344897 269.473474,721.311163 240.701488,720.409429 C217.978234,719.692983 195.076083,714.064353 175.650604,699.105454 C155.911212,683.870683 144.043273,661.067936 133.343227,636.461722 C117.168266,599.264175 97.0103235,549.41765 61.524648,535.290488 C56.3636475,533.231735 51.5536896,533.005272 46.2306695,532.647049 C43.6451061,532.474114 40.3068266,532.420586 39.0241711,529.130699 C35.9390472,521.208618 47.3445545,505.850321 50.5275652,500.497564 C60.6875465,483.409915 71.7015063,467.09224 82.1146433,450.231053 C91.8358214,434.489829 102.42448,418.085686 108.463086,399.63926 C118.072876,370.260856 87.3499028,353.082622 88.2106321,325.087701 C88.7473221,307.707709 102.38735,295.244019 113.188659,286.621962 C126.487771,276.019385 145.636467,269.048447 152.292773,249.700288 C157.251249,235.289018 149.470931,226.901658 143.47958,215.965563 C133.32635,197.436787 132.634391,172.320002 133.690894,150.871914 C135.115316,121.888791 140.681366,92.4774476 150.156139,65.8371853 C154.44966,53.7605409 159.708547,41.1980308 167.451735,31.8183527 C174.705489,23.0274779 181.571071,20.7752022 191.265246,22.5745522 C220.941843,28.0920099 250.905349,43.470894 279.363423,57.2068932 C315.119131,74.4674774 350.38203,93.523294 384.591801,114.963147 C407.919253,129.58441 378.977485,307.283652 399.452716,327.484135 C404.789238,332.750425 457.932716,250.052068 489.012565,247.878753 C520.092414,245.705438 546.990516,258.217365 555.584394,267.269848 C578.477832,291.384973 584.455589,310.43939 581.614541,338.595671 C578.773493,366.751953 578.790963,375.953987 582.489789,381.915081 Z" id="Shape" transform="translate(367.500000, 371.250000) rotate(-180.000000) translate(-367.500000, -371.250000) "></path>
                <path d="M584.382992,404.287696 C604.300884,430.725957 608.349109,432.695776 629.732148,457.436319 C639.319744,468.52918 649.001865,480.165971 656.307342,493.698273 C660.236906,500.975388 664.409536,510.135653 663.325867,519.180538 C660.216651,545.140801 623.449572,542.796136 608.595551,544.316665 C586.523826,546.550072 561.167337,548.799962 541.651179,562.7979 C528.866593,571.966406 524.072795,585.506949 526.459566,602.970377 C529.021885,621.702973 523.292959,635.301206 510.255179,645.751242 C493.909004,658.842631 473.275419,664.178908 454.296031,667.96993 C431.429608,672.51556 408.273514,674.530517 385.110051,673.990239 C362.582578,673.462792 340.757295,678.069709 318.378361,681.065441 C288.707454,685.033652 258.084539,686.990974 228.747847,678.856758 C203.205683,671.773315 180.134687,656.164192 162.83988,632.025268 C144.775365,606.831451 135.832569,575.089879 121.164223,547.217622 C112.015497,529.832487 99.2579182,506.834991 82.1622902,500.077081 C76.4603716,497.823071 66.0693087,500.86413 70.6234165,489.775389 C73.2262461,483.433668 78.0976899,477.870754 81.9462317,472.686943 C88.1646651,464.309608 94.5890292,456.16303 100.912116,447.901073 C114.388764,430.289301 128.820796,412.302548 138.921531,391.447803 C151.648726,365.190852 132.730104,344.983053 135.035854,318.359361 C136.274814,304.031769 144.437774,292.596891 153.073362,283.613816 C158.660499,277.795421 164.774279,272.755833 171.016344,268.054141 C177.535234,263.142294 185.249197,259.40072 190.934236,253.050757 C199.036429,244.014113 195.518727,233.316837 193.999566,221.634719 C191.325737,201.104612 190.738387,180.250132 192.250842,159.544363 C194.100843,134.165115 198.438892,108.060629 207.577491,84.9972017 C211.132329,76.0182473 215.635798,66.4994842 222.323483,60.4791756 C229.011169,54.4588671 235.928416,54.8709347 243.591741,56.6840325 C266.321769,62.0409121 289.004535,74.5059589 310.566497,86.3199389 C337.553552,101.109047 364.010589,117.637081 389.275929,136.439729 C406.7159,149.41986 373.608182,256.809014 388.198882,274.408424 C392.442405,279.530425 420.299831,283.832415 423.997492,281.291094 C436.581762,272.642202 464.816002,256.338046 491.13988,254.497301 C514.895867,252.836121 558.628487,269.112697 565.489416,312.046128 C567.176152,322.601169 563.753901,342.409528 564.855317,358.160516 C565.956734,373.911504 579.27861,397.509183 584.382992,404.287696 Z" id="Shape" transform="translate(366.500000, 370.000000) rotate(-180.000000) translate(-366.500000, -370.000000) "></path>
                <path d="M560.327547,353.42757 C576.181559,376.69248 598.502804,406.021919 614.471505,429.665388 C623.818626,443.511589 639.915508,466.788843 632.686753,486.309312 C624.756374,507.759609 597.113048,508.343906 581.134228,510.072109 C562.11616,512.129494 539.782242,514.939882 523.506581,528.333459 C518.359087,532.567557 513.973935,538.171874 512.115305,545.553771 C510.12512,553.45413 512.300831,560.366943 512.584179,568.275531 C513.177861,584.866284 505.061956,598.185795 494.321706,607.332929 C479.142333,620.265651 460.16137,626.380199 442.232844,630.643101 C421.920845,635.451195 401.271707,637.821639 380.580976,637.720505 C360.807313,637.63821 341.242787,638.17313 321.448884,638.790345 C295.562993,639.613299 269.312797,638.284229 244.202741,629.894213 C219.467109,621.623525 196.978024,606.123186 179.312607,583.323245 C162.078958,561.074684 150.451558,533.880169 140.267886,506.179537 C134.489604,490.457001 124.727581,466.961664 110.94471,459.020157 C104.815616,455.48557 98.8012112,455.728341 105.318222,446.535945 C113.525203,434.961097 124.585907,425.674061 134.091567,415.773924 C147.803601,401.487443 161.859701,386.921157 173.369039,369.935386 C180.719229,359.088852 183.9946,348.563271 183.488621,334.519561 C183.09733,323.821158 181.32303,313.233855 182.2203,302.494305 C184.3218,277.287224 200.590715,260.001075 214.974014,243.904095 C224.226686,233.551333 232.676537,225.65509 237.439487,210.928328 C243.072721,193.522851 245.43733,174.586679 249.201814,156.514609 C253.33735,136.669073 258.113793,116.025272 267.14046,98.5457286 C275.175408,82.9836683 284.947552,76.0050183 299.573721,80.197969 C322.386632,86.7322238 344.872344,102.829204 365.125001,117.720557 C385.73859,132.87114 405.997993,149.906288 423.079848,170.731139 C432.30216,181.976806 398.754012,237.473918 406.944127,249.554882 C417.245862,264.721925 461.400095,230.693882 503.540153,242.80023 C534.890619,251.806854 552.395729,282.414183 553.832812,302.965428 C555.269895,323.516673 555.561224,346.424231 560.327547,353.42757 Z" id="Shape" transform="translate(368.500000, 359.000000) rotate(-180.000000) translate(-368.500000, -359.000000) "></path>
                <path d="M565.165659,338.12945 C577.280964,359.212172 591.780215,379.129808 602.175841,401.900465 C608.919679,416.647255 615.542128,436.350811 606.842577,451.953919 C597.023549,469.561965 575.372458,473.66653 559.463744,475.910249 C543.072846,478.219838 523.505601,480.163022 510.108967,493.514178 C505.846861,497.766951 502.333322,503.501814 501.67917,510.368828 C501.048621,516.955892 502.828994,523.542957 502.238908,530.249411 C500.917116,545.309087 493.434828,557.717469 483.787768,566.717045 C455.251218,593.341136 412.778527,599.26126 378.347863,599.957018 C361.113985,600.302839 343.377692,598.487279 326.032541,597.186334 C303.524982,595.498399 280.983704,591.875514 259.518068,583.143537 C213.879145,564.584483 183.289097,523.423566 161.924618,472.205025 C155.201012,456.083185 150.055464,438.639816 139.518217,425.683884 C134.086055,418.993897 135.272971,414.189457 140.826521,408.088189 C149.509213,398.553413 160.10041,391.266474 169.737354,383.308477 C183.444205,371.991077 197.444412,360.504884 209.566461,346.947882 C217.922076,337.602485 223.853281,328.598792 225.653886,314.584813 C226.938587,304.59306 226.638486,294.411928 227.410656,284.358422 C228.880812,265.260052 233.915087,246.305775 242.827069,230.463886 C249.908099,217.907295 258.337896,206.495206 267.050935,195.614199 C278.37721,181.447894 287.956832,167.055159 296.558597,150.241678 C307.962427,127.985634 323.985786,86.9317569 350.846492,97.7962959 C380.472172,109.784753 408.239924,140.245808 427.247431,169.759972 C433.630474,179.669387 438.870436,191.82252 447.478945,199.130045 C460.366419,210.052221 416.670255,237.755835 431.998998,237.710549 C454.948279,237.648796 494.171689,225.119442 524.874992,241.794808 C555.578295,258.470174 556.89097,323.761416 565.165659,338.12945 Z" id="Shape" transform="translate(373.500000, 348.000000) rotate(-180.000000) translate(-373.500000, -348.000000) "></path>
                <path d="M566.141916,322.749664 C578.125592,350.22731 604.997771,395.378854 584.559396,425.933798 C573.763291,442.081389 554.667682,448.149592 538.648962,451.76583 C525.757739,454.690909 510.211348,455.789357 500.471238,468.189061 C493.312071,477.305765 496.490175,490.57353 493.747289,501.985866 C490.343143,516.134035 482.529462,527.710932 472.927677,536.412118 C446.095984,560.730184 408.788696,568.193045 376.511718,569.781063 C342.989814,571.426678 306.053642,563.729316 274.508775,548.922901 C235.177217,530.454994 205.7106,495.485689 185.103536,451.202207 C181.301283,443.027618 177.84653,434.639098 174.196097,426.365772 C171.743357,420.815938 168.106419,415.447121 166.173242,409.609304 C162.954653,399.875495 166.746785,391.91895 172.826341,385.575106 C181.571186,376.441947 192.31331,369.94177 202.282837,363.087786 C215.916293,353.707784 229.853389,344.496458 242.535437,333.491412 C251.057612,326.086148 259.977893,318.109032 263.027793,305.260898 C265.109417,296.498001 265.541261,287.216736 265.467038,278.141173 C265.305096,258.681784 266.141794,242.945596 273.584359,225.123593 C285.831189,195.86457 304.663644,169.55531 324.55884,147.664525 C340.172706,130.484311 364.878916,103.796561 387.628332,115.282949 C408.039716,125.568038 419.979533,150.186429 433.42743,170.090135 C439.965821,179.766347 410.559541,260.509057 419.189677,267.391839 C430.070125,276.068341 430.625681,235.58463 451.78829,234.104796 C473.553172,232.582847 502.562929,222.384227 527.070042,240.701776 C551.577156,259.019324 560.096098,308.889478 566.141916,322.749664 Z" id="Shape" transform="translate(378.500000, 341.250000) rotate(-180.000000) translate(-378.500000, -341.250000) "></path>
                <path d="M562.814514,410.910842 C552.831252,423.855636 538.788602,431.092036 525.197744,436.499772 C515.463979,440.375384 500.008635,441.51624 494.040931,453.431381 C489.65787,462.199904 489.050985,474.296264 485.086002,483.690815 C479.637521,496.606779 471.383882,507.245151 461.70069,515.572983 C436.474494,537.273943 403.618402,545.659435 373.655129,548.060585 C308.549829,553.270628 242.304933,511.775623 207.466349,443.505529 C197.078497,423.155472 183.669705,401.495697 200.456825,380.70495 C218.784759,358.023759 246.394666,347.397743 268.269507,331.281619 C276.627665,325.128414 287.278501,317.731389 291.941403,306.590546 C294.746561,299.893685 294.938742,291.491719 295.066862,284.119405 C295.40402,265.342658 296.681851,248.456353 302.868709,230.935782 C312.42378,203.860034 327.659971,178.880659 344.925856,158.4194 C359.983353,140.577578 381.456976,119.609729 403.325074,132.472151 C420.091964,142.356817 430.725942,163.337021 443.753745,178.802405 C458.251559,196.026436 428.63566,238.513287 448.325715,244.184614 C467.479687,249.687078 502.992642,232.576304 530.489638,246.988156 C542.652223,253.362866 559.670614,302.207075 563.681012,316.232214 C572.214493,346.298074 583.425011,384.189294 562.814514,410.910842 Z" id="Shape" transform="translate(383.500000, 338.500000) rotate(-180.000000) translate(-383.500000, -338.500000) "></path>
            </g>
        </g>
    </g>
</svg>